M48
; DRILL file {KiCad 5.1.5-52549c5~84~ubuntu18.04.1} date Wed 12 Feb 2020 07:36:08 PM EST
; FORMAT={-:-/ absolute / metric / decimal}
; #@! TF.CreationDate,2020-02-12T19:36:08-05:00
; #@! TF.GenerationSoftware,Kicad,Pcbnew,5.1.5-52549c5~84~ubuntu18.04.1
; #@! TF.FileFunction,Plated,1,2,PTH
FMAT,2
METRIC
T1C0.400
T2C0.600
T3C0.760
T4C0.800
T5C1.000
T6C1.520
%
G90
G05
T1
X72.06Y-102.692
X72.079Y-119.094
X74.619Y-99.829
X74.619Y-116.503
X79.699Y-97.733
X79.699Y-113.836
X87.079Y-102.685
X87.079Y-119.093
X89.619Y-99.855
X89.619Y-116.517
X94.666Y-97.841
X94.717Y-113.868
X102.079Y-102.714
X102.108Y-119.151
X104.619Y-99.928
X104.619Y-116.514
X109.699Y-113.915
X109.753Y-97.866
X117.459Y-118.99
X117.475Y-102.54
X118.133Y-42.898
X118.339Y-45.415
X119.99Y-100.076
X119.999Y-116.526
X124.993Y-97.892
X125.079Y-113.91
X125.224Y-42.898
X125.224Y-57.127
X127.764Y-45.413
X127.787Y-59.538
X132.459Y-119.179
X132.486Y-102.514
X134.999Y-100.002
X134.999Y-116.563
X140.079Y-113.972
X140.081Y-97.917
X140.224Y-42.739
X140.224Y-57.007
X142.748Y-45.466
X142.773Y-59.563
X147.459Y-102.503
X147.459Y-119.216
X149.962Y-100.203
X149.999Y-116.572
X155.067Y-97.866
X155.067Y-113.995
X155.224Y-42.778
X155.224Y-56.926
X157.759Y-59.538
X157.764Y-45.42
X184.353Y-132.436
X184.709Y-126.949
X190.398Y-137.643
T2
X193.961Y-135.077
X195.961Y-135.077
T3
X180.594Y-144.932
X181.864Y-142.392
X183.134Y-144.932
X184.404Y-142.392
X185.674Y-144.932
X186.944Y-142.392
X188.214Y-144.932
X189.484Y-142.392
X201.803Y-144.932
X203.073Y-142.392
X204.343Y-144.932
X205.613Y-142.392
X206.883Y-144.932
X208.153Y-142.392
X209.423Y-144.932
X210.693Y-142.392
T4
X174.117Y-132.918
X174.117Y-153.238
X132.459Y-93.482
X132.459Y-108.722
X134.999Y-93.482
X134.999Y-108.722
X137.539Y-93.482
X137.539Y-108.722
X140.079Y-93.482
X140.079Y-108.722
X142.619Y-93.482
X142.619Y-108.722
X147.459Y-93.482
X147.459Y-108.722
X149.999Y-93.482
X149.999Y-108.722
X152.539Y-93.482
X152.539Y-108.722
X155.079Y-93.482
X155.079Y-108.722
X157.619Y-93.482
X157.619Y-108.722
X152.451Y-83.566
X172.771Y-83.566
X122.504Y-74.778
X142.824Y-74.778
X200.711Y-102.768
X203.211Y-102.768
X117.604Y-37.934
X117.604Y-53.174
X120.144Y-37.934
X120.144Y-53.174
X122.684Y-37.934
X122.684Y-53.174
X125.224Y-37.934
X125.224Y-53.174
X127.764Y-37.934
X127.764Y-53.174
X72.079Y-93.433
X72.079Y-108.673
X74.619Y-93.433
X74.619Y-108.673
X77.159Y-93.433
X77.159Y-108.673
X79.699Y-93.433
X79.699Y-108.673
X82.239Y-93.433
X82.239Y-108.673
X137.795Y-24.79
X158.115Y-24.79
X132.604Y-37.934
X132.604Y-53.174
X135.144Y-37.934
X135.144Y-53.174
X137.684Y-37.934
X137.684Y-53.174
X140.224Y-37.934
X140.224Y-53.174
X142.764Y-37.934
X142.764Y-53.174
X147.604Y-37.934
X147.604Y-53.174
X150.144Y-37.934
X150.144Y-53.174
X152.684Y-37.934
X152.684Y-53.174
X155.224Y-37.934
X155.224Y-53.174
X157.764Y-37.934
X157.764Y-53.174
X122.885Y-19.609
X143.205Y-19.609
X102.079Y-93.433
X102.079Y-108.673
X104.619Y-93.433
X104.619Y-108.673
X107.159Y-93.433
X107.159Y-108.673
X109.699Y-93.433
X109.699Y-108.673
X112.239Y-93.433
X112.239Y-108.673
X117.459Y-93.482
X117.459Y-108.722
X119.999Y-93.482
X119.999Y-108.722
X122.539Y-93.482
X122.539Y-108.722
X125.079Y-93.482
X125.079Y-108.722
X127.619Y-93.482
X127.619Y-108.722
X87.079Y-93.433
X87.079Y-108.673
X89.619Y-93.433
X89.619Y-108.673
X92.159Y-93.433
X92.159Y-108.673
X94.699Y-93.433
X94.699Y-108.673
X97.239Y-93.433
X97.239Y-108.673
X137.693Y-78.918
X158.013Y-78.918
X77.165Y-61.544
X97.485Y-61.544
X92.126Y-66.015
X112.446Y-66.015
X107.112Y-70.434
X127.432Y-70.434
X168.123Y-131.039
X168.123Y-151.359
X152.883Y-29.997
X173.203Y-29.997
T5
X204.521Y-123.317
X197.104Y-97.739
X197.104Y-100.279
X197.104Y-102.819
X197.104Y-105.359
X197.104Y-107.899
X197.104Y-110.439
X197.104Y-112.979
X197.104Y-115.519
X197.104Y-118.059
X197.104Y-120.599
X197.104Y-123.139
X197.104Y-125.679
X176.784Y-87.579
X176.784Y-90.119
X176.784Y-92.659
X176.784Y-95.199
X176.784Y-97.739
X176.784Y-100.279
X176.784Y-102.819
X176.784Y-105.359
X176.784Y-107.899
X176.784Y-110.439
X176.784Y-112.979
X176.784Y-115.519
X176.784Y-118.059
X176.784Y-120.599
X176.784Y-123.139
X176.784Y-125.679
T6
X200.66Y-88.951
X205.74Y-88.951
T0
M30
