G04 #@! TF.GenerationSoftware,KiCad,Pcbnew,5.1.5-52549c5~84~ubuntu18.04.1*
G04 #@! TF.CreationDate,2020-02-12T19:07:26-05:00*
G04 #@! TF.ProjectId,solenoid_board,736f6c65-6e6f-4696-945f-626f6172642e,rev?*
G04 #@! TF.SameCoordinates,Original*
G04 #@! TF.FileFunction,Legend,Top*
G04 #@! TF.FilePolarity,Positive*
%FSLAX46Y46*%
G04 Gerber Fmt 4.6, Leading zero omitted, Abs format (unit mm)*
G04 Created by KiCad (PCBNEW 5.1.5-52549c5~84~ubuntu18.04.1) date 2020-02-12 19:07:26*
%MOMM*%
%LPD*%
G04 APERTURE LIST*
G04 #@! TA.AperFunction,Profile*
%ADD10C,0.120000*%
G04 #@! TD*
%ADD11C,0.150000*%
%ADD12C,0.120000*%
%ADD13C,0.152400*%
G04 APERTURE END LIST*
D10*
X55000000Y-160000000D02*
X220000000Y-160000000D01*
X55000000Y-15000000D02*
X55000000Y-160000000D01*
X220000000Y-15000000D02*
X55000000Y-15000000D01*
X220000000Y-160000000D02*
X220000000Y-15000000D01*
D11*
X154308752Y-149286980D02*
X154308752Y-150001266D01*
X154261133Y-150144123D01*
X154165895Y-150239361D01*
X154023038Y-150286980D01*
X153927800Y-150286980D01*
X155261133Y-150286980D02*
X154784942Y-150286980D01*
X154784942Y-149286980D01*
X156165895Y-150191742D02*
X156118276Y-150239361D01*
X155975419Y-150286980D01*
X155880180Y-150286980D01*
X155737323Y-150239361D01*
X155642085Y-150144123D01*
X155594466Y-150048885D01*
X155546847Y-149858409D01*
X155546847Y-149715552D01*
X155594466Y-149525076D01*
X155642085Y-149429838D01*
X155737323Y-149334600D01*
X155880180Y-149286980D01*
X155975419Y-149286980D01*
X156118276Y-149334600D01*
X156165895Y-149382219D01*
X156880180Y-149286980D02*
X156880180Y-150001266D01*
X156832561Y-150144123D01*
X156737323Y-150239361D01*
X156594466Y-150286980D01*
X156499228Y-150286980D01*
X157832561Y-150286980D02*
X157356371Y-150286980D01*
X157356371Y-149286980D01*
X158737323Y-150191742D02*
X158689704Y-150239361D01*
X158546847Y-150286980D01*
X158451609Y-150286980D01*
X158308752Y-150239361D01*
X158213514Y-150144123D01*
X158165895Y-150048885D01*
X158118276Y-149858409D01*
X158118276Y-149715552D01*
X158165895Y-149525076D01*
X158213514Y-149429838D01*
X158308752Y-149334600D01*
X158451609Y-149286980D01*
X158546847Y-149286980D01*
X158689704Y-149334600D01*
X158737323Y-149382219D01*
X159451609Y-149286980D02*
X159451609Y-150001266D01*
X159403990Y-150144123D01*
X159308752Y-150239361D01*
X159165895Y-150286980D01*
X159070657Y-150286980D01*
X160403990Y-150286980D02*
X159927800Y-150286980D01*
X159927800Y-149286980D01*
X161308752Y-150191742D02*
X161261133Y-150239361D01*
X161118276Y-150286980D01*
X161023038Y-150286980D01*
X160880180Y-150239361D01*
X160784942Y-150144123D01*
X160737323Y-150048885D01*
X160689704Y-149858409D01*
X160689704Y-149715552D01*
X160737323Y-149525076D01*
X160784942Y-149429838D01*
X160880180Y-149334600D01*
X161023038Y-149286980D01*
X161118276Y-149286980D01*
X161261133Y-149334600D01*
X161308752Y-149382219D01*
X162023038Y-149286980D02*
X162023038Y-150001266D01*
X161975419Y-150144123D01*
X161880180Y-150239361D01*
X161737323Y-150286980D01*
X161642085Y-150286980D01*
X162975419Y-150286980D02*
X162499228Y-150286980D01*
X162499228Y-149286980D01*
X163880180Y-150191742D02*
X163832561Y-150239361D01*
X163689704Y-150286980D01*
X163594466Y-150286980D01*
X163451609Y-150239361D01*
X163356371Y-150144123D01*
X163308752Y-150048885D01*
X163261133Y-149858409D01*
X163261133Y-149715552D01*
X163308752Y-149525076D01*
X163356371Y-149429838D01*
X163451609Y-149334600D01*
X163594466Y-149286980D01*
X163689704Y-149286980D01*
X163832561Y-149334600D01*
X163880180Y-149382219D01*
X142050190Y-149185380D02*
X142050190Y-149899666D01*
X142002571Y-150042523D01*
X141907333Y-150137761D01*
X141764476Y-150185380D01*
X141669238Y-150185380D01*
X143002571Y-150185380D02*
X142526380Y-150185380D01*
X142526380Y-149185380D01*
X143907333Y-150090142D02*
X143859714Y-150137761D01*
X143716857Y-150185380D01*
X143621619Y-150185380D01*
X143478761Y-150137761D01*
X143383523Y-150042523D01*
X143335904Y-149947285D01*
X143288285Y-149756809D01*
X143288285Y-149613952D01*
X143335904Y-149423476D01*
X143383523Y-149328238D01*
X143478761Y-149233000D01*
X143621619Y-149185380D01*
X143716857Y-149185380D01*
X143859714Y-149233000D01*
X143907333Y-149280619D01*
X144335904Y-150185380D02*
X144335904Y-149185380D01*
X144716857Y-149185380D01*
X144812095Y-149233000D01*
X144859714Y-149280619D01*
X144907333Y-149375857D01*
X144907333Y-149518714D01*
X144859714Y-149613952D01*
X144812095Y-149661571D01*
X144716857Y-149709190D01*
X144335904Y-149709190D01*
X145907333Y-150090142D02*
X145859714Y-150137761D01*
X145716857Y-150185380D01*
X145621619Y-150185380D01*
X145478761Y-150137761D01*
X145383523Y-150042523D01*
X145335904Y-149947285D01*
X145288285Y-149756809D01*
X145288285Y-149613952D01*
X145335904Y-149423476D01*
X145383523Y-149328238D01*
X145478761Y-149233000D01*
X145621619Y-149185380D01*
X145716857Y-149185380D01*
X145859714Y-149233000D01*
X145907333Y-149280619D01*
X146669238Y-149661571D02*
X146812095Y-149709190D01*
X146859714Y-149756809D01*
X146907333Y-149852047D01*
X146907333Y-149994904D01*
X146859714Y-150090142D01*
X146812095Y-150137761D01*
X146716857Y-150185380D01*
X146335904Y-150185380D01*
X146335904Y-149185380D01*
X146669238Y-149185380D01*
X146764476Y-149233000D01*
X146812095Y-149280619D01*
X146859714Y-149375857D01*
X146859714Y-149471095D01*
X146812095Y-149566333D01*
X146764476Y-149613952D01*
X146669238Y-149661571D01*
X146335904Y-149661571D01*
X148097809Y-150185380D02*
X148097809Y-149185380D01*
X148431142Y-149899666D01*
X148764476Y-149185380D01*
X148764476Y-150185380D01*
X149240666Y-149518714D02*
X149240666Y-150185380D01*
X149240666Y-149613952D02*
X149288285Y-149566333D01*
X149383523Y-149518714D01*
X149526380Y-149518714D01*
X149621619Y-149566333D01*
X149669238Y-149661571D01*
X149669238Y-150185380D01*
X150002571Y-149518714D02*
X150383523Y-149518714D01*
X150145428Y-150185380D02*
X150145428Y-149328238D01*
X150193047Y-149233000D01*
X150288285Y-149185380D01*
X150383523Y-149185380D01*
X151145428Y-149518714D02*
X151145428Y-150328238D01*
X151097809Y-150423476D01*
X151050190Y-150471095D01*
X150954952Y-150518714D01*
X150812095Y-150518714D01*
X150716857Y-150471095D01*
X151145428Y-150137761D02*
X151050190Y-150185380D01*
X150859714Y-150185380D01*
X150764476Y-150137761D01*
X150716857Y-150090142D01*
X150669238Y-149994904D01*
X150669238Y-149709190D01*
X150716857Y-149613952D01*
X150764476Y-149566333D01*
X150859714Y-149518714D01*
X151050190Y-149518714D01*
X151145428Y-149566333D01*
X152335904Y-149518714D02*
X153050190Y-149518714D01*
X152621619Y-149090142D02*
X152335904Y-150375857D01*
X152954952Y-149947285D02*
X152240666Y-149947285D01*
X152669238Y-150375857D02*
X152954952Y-149090142D01*
X153383523Y-150090142D02*
X153431142Y-150137761D01*
X153383523Y-150185380D01*
X153335904Y-150137761D01*
X153383523Y-150090142D01*
X153383523Y-150185380D01*
X153383523Y-149566333D02*
X153431142Y-149613952D01*
X153383523Y-149661571D01*
X153335904Y-149613952D01*
X153383523Y-149566333D01*
X153383523Y-149661571D01*
X142459628Y-143673580D02*
X142554866Y-143673580D01*
X142650104Y-143721200D01*
X142697723Y-143768819D01*
X142745342Y-143864057D01*
X142792961Y-144054533D01*
X142792961Y-144292628D01*
X142745342Y-144483104D01*
X142697723Y-144578342D01*
X142650104Y-144625961D01*
X142554866Y-144673580D01*
X142459628Y-144673580D01*
X142364390Y-144625961D01*
X142316771Y-144578342D01*
X142269152Y-144483104D01*
X142221533Y-144292628D01*
X142221533Y-144054533D01*
X142269152Y-143864057D01*
X142316771Y-143768819D01*
X142364390Y-143721200D01*
X142459628Y-143673580D01*
X143173914Y-143768819D02*
X143221533Y-143721200D01*
X143316771Y-143673580D01*
X143554866Y-143673580D01*
X143650104Y-143721200D01*
X143697723Y-143768819D01*
X143745342Y-143864057D01*
X143745342Y-143959295D01*
X143697723Y-144102152D01*
X143126295Y-144673580D01*
X143745342Y-144673580D01*
X144888200Y-143625961D02*
X144031057Y-144911676D01*
X145745342Y-144673580D02*
X145173914Y-144673580D01*
X145459628Y-144673580D02*
X145459628Y-143673580D01*
X145364390Y-143816438D01*
X145269152Y-143911676D01*
X145173914Y-143959295D01*
X146364390Y-143673580D02*
X146459628Y-143673580D01*
X146554866Y-143721200D01*
X146602485Y-143768819D01*
X146650104Y-143864057D01*
X146697723Y-144054533D01*
X146697723Y-144292628D01*
X146650104Y-144483104D01*
X146602485Y-144578342D01*
X146554866Y-144625961D01*
X146459628Y-144673580D01*
X146364390Y-144673580D01*
X146269152Y-144625961D01*
X146221533Y-144578342D01*
X146173914Y-144483104D01*
X146126295Y-144292628D01*
X146126295Y-144054533D01*
X146173914Y-143864057D01*
X146221533Y-143768819D01*
X146269152Y-143721200D01*
X146364390Y-143673580D01*
X147840580Y-143625961D02*
X146983438Y-144911676D01*
X148126295Y-143768819D02*
X148173914Y-143721200D01*
X148269152Y-143673580D01*
X148507247Y-143673580D01*
X148602485Y-143721200D01*
X148650104Y-143768819D01*
X148697723Y-143864057D01*
X148697723Y-143959295D01*
X148650104Y-144102152D01*
X148078676Y-144673580D01*
X148697723Y-144673580D01*
X149316771Y-143673580D02*
X149412009Y-143673580D01*
X149507247Y-143721200D01*
X149554866Y-143768819D01*
X149602485Y-143864057D01*
X149650104Y-144054533D01*
X149650104Y-144292628D01*
X149602485Y-144483104D01*
X149554866Y-144578342D01*
X149507247Y-144625961D01*
X149412009Y-144673580D01*
X149316771Y-144673580D01*
X149221533Y-144625961D01*
X149173914Y-144578342D01*
X149126295Y-144483104D01*
X149078676Y-144292628D01*
X149078676Y-144054533D01*
X149126295Y-143864057D01*
X149173914Y-143768819D01*
X149221533Y-143721200D01*
X149316771Y-143673580D01*
X150031057Y-143768819D02*
X150078676Y-143721200D01*
X150173914Y-143673580D01*
X150412009Y-143673580D01*
X150507247Y-143721200D01*
X150554866Y-143768819D01*
X150602485Y-143864057D01*
X150602485Y-143959295D01*
X150554866Y-144102152D01*
X149983438Y-144673580D01*
X150602485Y-144673580D01*
X151221533Y-143673580D02*
X151316771Y-143673580D01*
X151412009Y-143721200D01*
X151459628Y-143768819D01*
X151507247Y-143864057D01*
X151554866Y-144054533D01*
X151554866Y-144292628D01*
X151507247Y-144483104D01*
X151459628Y-144578342D01*
X151412009Y-144625961D01*
X151316771Y-144673580D01*
X151221533Y-144673580D01*
X151126295Y-144625961D01*
X151078676Y-144578342D01*
X151031057Y-144483104D01*
X150983438Y-144292628D01*
X150983438Y-144054533D01*
X151031057Y-143864057D01*
X151078676Y-143768819D01*
X151126295Y-143721200D01*
X151221533Y-143673580D01*
X141901447Y-148197866D02*
X142377638Y-148197866D01*
X141806209Y-148483580D02*
X142139542Y-147483580D01*
X142472876Y-148483580D01*
X143234780Y-147816914D02*
X143234780Y-148483580D01*
X142806209Y-147816914D02*
X142806209Y-148340723D01*
X142853828Y-148435961D01*
X142949066Y-148483580D01*
X143091923Y-148483580D01*
X143187161Y-148435961D01*
X143234780Y-148388342D01*
X143568114Y-147816914D02*
X143949066Y-147816914D01*
X143710971Y-147483580D02*
X143710971Y-148340723D01*
X143758590Y-148435961D01*
X143853828Y-148483580D01*
X143949066Y-148483580D01*
X144282400Y-148483580D02*
X144282400Y-147483580D01*
X144710971Y-148483580D02*
X144710971Y-147959771D01*
X144663352Y-147864533D01*
X144568114Y-147816914D01*
X144425257Y-147816914D01*
X144330019Y-147864533D01*
X144282400Y-147912152D01*
X145330019Y-148483580D02*
X145234780Y-148435961D01*
X145187161Y-148388342D01*
X145139542Y-148293104D01*
X145139542Y-148007390D01*
X145187161Y-147912152D01*
X145234780Y-147864533D01*
X145330019Y-147816914D01*
X145472876Y-147816914D01*
X145568114Y-147864533D01*
X145615733Y-147912152D01*
X145663352Y-148007390D01*
X145663352Y-148293104D01*
X145615733Y-148388342D01*
X145568114Y-148435961D01*
X145472876Y-148483580D01*
X145330019Y-148483580D01*
X146091923Y-148483580D02*
X146091923Y-147816914D01*
X146091923Y-148007390D02*
X146139542Y-147912152D01*
X146187161Y-147864533D01*
X146282400Y-147816914D01*
X146377638Y-147816914D01*
X146710971Y-148388342D02*
X146758590Y-148435961D01*
X146710971Y-148483580D01*
X146663352Y-148435961D01*
X146710971Y-148388342D01*
X146710971Y-148483580D01*
X146710971Y-147864533D02*
X146758590Y-147912152D01*
X146710971Y-147959771D01*
X146663352Y-147912152D01*
X146710971Y-147864533D01*
X146710971Y-147959771D01*
X147949066Y-148483580D02*
X147949066Y-147483580D01*
X148330019Y-147483580D01*
X148425257Y-147531200D01*
X148472876Y-147578819D01*
X148520495Y-147674057D01*
X148520495Y-147816914D01*
X148472876Y-147912152D01*
X148425257Y-147959771D01*
X148330019Y-148007390D01*
X147949066Y-148007390D01*
X149377638Y-148483580D02*
X149377638Y-147959771D01*
X149330019Y-147864533D01*
X149234780Y-147816914D01*
X149044304Y-147816914D01*
X148949066Y-147864533D01*
X149377638Y-148435961D02*
X149282400Y-148483580D01*
X149044304Y-148483580D01*
X148949066Y-148435961D01*
X148901447Y-148340723D01*
X148901447Y-148245485D01*
X148949066Y-148150247D01*
X149044304Y-148102628D01*
X149282400Y-148102628D01*
X149377638Y-148055009D01*
X149710971Y-147816914D02*
X150091923Y-147816914D01*
X149853828Y-147483580D02*
X149853828Y-148340723D01*
X149901447Y-148435961D01*
X149996685Y-148483580D01*
X150091923Y-148483580D01*
X150425257Y-148483580D02*
X150425257Y-147816914D01*
X150425257Y-148007390D02*
X150472876Y-147912152D01*
X150520495Y-147864533D01*
X150615733Y-147816914D01*
X150710971Y-147816914D01*
X151044304Y-148483580D02*
X151044304Y-147816914D01*
X151044304Y-147483580D02*
X150996685Y-147531200D01*
X151044304Y-147578819D01*
X151091923Y-147531200D01*
X151044304Y-147483580D01*
X151044304Y-147578819D01*
X151949066Y-148435961D02*
X151853828Y-148483580D01*
X151663352Y-148483580D01*
X151568114Y-148435961D01*
X151520495Y-148388342D01*
X151472876Y-148293104D01*
X151472876Y-148007390D01*
X151520495Y-147912152D01*
X151568114Y-147864533D01*
X151663352Y-147816914D01*
X151853828Y-147816914D01*
X151949066Y-147864533D01*
X152377638Y-148483580D02*
X152377638Y-147483580D01*
X152472876Y-148102628D02*
X152758590Y-148483580D01*
X152758590Y-147816914D02*
X152377638Y-148197866D01*
X153806209Y-147483580D02*
X154377638Y-147483580D01*
X154091923Y-148483580D02*
X154091923Y-147483580D01*
X155139542Y-148483580D02*
X155139542Y-147959771D01*
X155091923Y-147864533D01*
X154996685Y-147816914D01*
X154806209Y-147816914D01*
X154710971Y-147864533D01*
X155139542Y-148435961D02*
X155044304Y-148483580D01*
X154806209Y-148483580D01*
X154710971Y-148435961D01*
X154663352Y-148340723D01*
X154663352Y-148245485D01*
X154710971Y-148150247D01*
X154806209Y-148102628D01*
X155044304Y-148102628D01*
X155139542Y-148055009D01*
X155758590Y-148483580D02*
X155663352Y-148435961D01*
X155615733Y-148340723D01*
X155615733Y-147483580D01*
X156139542Y-148483580D02*
X156139542Y-147816914D01*
X156139542Y-147483580D02*
X156091923Y-147531200D01*
X156139542Y-147578819D01*
X156187161Y-147531200D01*
X156139542Y-147483580D01*
X156139542Y-147578819D01*
X157044304Y-148483580D02*
X157044304Y-147959771D01*
X156996685Y-147864533D01*
X156901447Y-147816914D01*
X156710971Y-147816914D01*
X156615733Y-147864533D01*
X157044304Y-148435961D02*
X156949066Y-148483580D01*
X156710971Y-148483580D01*
X156615733Y-148435961D01*
X156568114Y-148340723D01*
X156568114Y-148245485D01*
X156615733Y-148150247D01*
X156710971Y-148102628D01*
X156949066Y-148102628D01*
X157044304Y-148055009D01*
X157377638Y-147816914D02*
X157758590Y-147816914D01*
X157520495Y-148483580D02*
X157520495Y-147626438D01*
X157568114Y-147531200D01*
X157663352Y-147483580D01*
X157758590Y-147483580D01*
X158472876Y-148435961D02*
X158377638Y-148483580D01*
X158187161Y-148483580D01*
X158091923Y-148435961D01*
X158044304Y-148340723D01*
X158044304Y-147959771D01*
X158091923Y-147864533D01*
X158187161Y-147816914D01*
X158377638Y-147816914D01*
X158472876Y-147864533D01*
X158520495Y-147959771D01*
X158520495Y-148055009D01*
X158044304Y-148150247D01*
X158949066Y-148483580D02*
X158949066Y-147816914D01*
X158949066Y-148007390D02*
X158996685Y-147912152D01*
X159044304Y-147864533D01*
X159139542Y-147816914D01*
X159234780Y-147816914D01*
X159568114Y-148483580D02*
X159568114Y-147816914D01*
X159568114Y-148007390D02*
X159615733Y-147912152D01*
X159663352Y-147864533D01*
X159758590Y-147816914D01*
X159853828Y-147816914D01*
X160330019Y-148483580D02*
X160234780Y-148435961D01*
X160187161Y-148388342D01*
X160139542Y-148293104D01*
X160139542Y-148007390D01*
X160187161Y-147912152D01*
X160234780Y-147864533D01*
X160330019Y-147816914D01*
X160472876Y-147816914D01*
X160568114Y-147864533D01*
X160615733Y-147912152D01*
X160663352Y-148007390D01*
X160663352Y-148293104D01*
X160615733Y-148388342D01*
X160568114Y-148435961D01*
X160472876Y-148483580D01*
X160330019Y-148483580D01*
X142082238Y-146530961D02*
X142225095Y-146578580D01*
X142463190Y-146578580D01*
X142558428Y-146530961D01*
X142606047Y-146483342D01*
X142653666Y-146388104D01*
X142653666Y-146292866D01*
X142606047Y-146197628D01*
X142558428Y-146150009D01*
X142463190Y-146102390D01*
X142272714Y-146054771D01*
X142177476Y-146007152D01*
X142129857Y-145959533D01*
X142082238Y-145864295D01*
X142082238Y-145769057D01*
X142129857Y-145673819D01*
X142177476Y-145626200D01*
X142272714Y-145578580D01*
X142510809Y-145578580D01*
X142653666Y-145626200D01*
X143510809Y-146530961D02*
X143415571Y-146578580D01*
X143225095Y-146578580D01*
X143129857Y-146530961D01*
X143082238Y-146483342D01*
X143034619Y-146388104D01*
X143034619Y-146102390D01*
X143082238Y-146007152D01*
X143129857Y-145959533D01*
X143225095Y-145911914D01*
X143415571Y-145911914D01*
X143510809Y-145959533D01*
X144082238Y-146578580D02*
X143987000Y-146530961D01*
X143939380Y-146483342D01*
X143891761Y-146388104D01*
X143891761Y-146102390D01*
X143939380Y-146007152D01*
X143987000Y-145959533D01*
X144082238Y-145911914D01*
X144225095Y-145911914D01*
X144320333Y-145959533D01*
X144367952Y-146007152D01*
X144415571Y-146102390D01*
X144415571Y-146388104D01*
X144367952Y-146483342D01*
X144320333Y-146530961D01*
X144225095Y-146578580D01*
X144082238Y-146578580D01*
X144844142Y-146578580D02*
X144844142Y-145911914D01*
X144844142Y-146102390D02*
X144891761Y-146007152D01*
X144939380Y-145959533D01*
X145034619Y-145911914D01*
X145129857Y-145911914D01*
X145844142Y-146530961D02*
X145748904Y-146578580D01*
X145558428Y-146578580D01*
X145463190Y-146530961D01*
X145415571Y-146435723D01*
X145415571Y-146054771D01*
X145463190Y-145959533D01*
X145558428Y-145911914D01*
X145748904Y-145911914D01*
X145844142Y-145959533D01*
X145891761Y-146054771D01*
X145891761Y-146150009D01*
X145415571Y-146245247D01*
X146320333Y-146578580D02*
X146320333Y-145578580D01*
X146320333Y-145959533D02*
X146415571Y-145911914D01*
X146606047Y-145911914D01*
X146701285Y-145959533D01*
X146748904Y-146007152D01*
X146796523Y-146102390D01*
X146796523Y-146388104D01*
X146748904Y-146483342D01*
X146701285Y-146530961D01*
X146606047Y-146578580D01*
X146415571Y-146578580D01*
X146320333Y-146530961D01*
X147367952Y-146578580D02*
X147272714Y-146530961D01*
X147225095Y-146483342D01*
X147177476Y-146388104D01*
X147177476Y-146102390D01*
X147225095Y-146007152D01*
X147272714Y-145959533D01*
X147367952Y-145911914D01*
X147510809Y-145911914D01*
X147606047Y-145959533D01*
X147653666Y-146007152D01*
X147701285Y-146102390D01*
X147701285Y-146388104D01*
X147653666Y-146483342D01*
X147606047Y-146530961D01*
X147510809Y-146578580D01*
X147367952Y-146578580D01*
X148558428Y-146578580D02*
X148558428Y-146054771D01*
X148510809Y-145959533D01*
X148415571Y-145911914D01*
X148225095Y-145911914D01*
X148129857Y-145959533D01*
X148558428Y-146530961D02*
X148463190Y-146578580D01*
X148225095Y-146578580D01*
X148129857Y-146530961D01*
X148082238Y-146435723D01*
X148082238Y-146340485D01*
X148129857Y-146245247D01*
X148225095Y-146197628D01*
X148463190Y-146197628D01*
X148558428Y-146150009D01*
X149034619Y-146578580D02*
X149034619Y-145911914D01*
X149034619Y-146102390D02*
X149082238Y-146007152D01*
X149129857Y-145959533D01*
X149225095Y-145911914D01*
X149320333Y-145911914D01*
X150082238Y-146578580D02*
X150082238Y-145578580D01*
X150082238Y-146530961D02*
X149987000Y-146578580D01*
X149796523Y-146578580D01*
X149701285Y-146530961D01*
X149653666Y-146483342D01*
X149606047Y-146388104D01*
X149606047Y-146102390D01*
X149653666Y-146007152D01*
X149701285Y-145959533D01*
X149796523Y-145911914D01*
X149987000Y-145911914D01*
X150082238Y-145959533D01*
X151320333Y-146578580D02*
X151320333Y-145578580D01*
X151701285Y-145578580D01*
X151796523Y-145626200D01*
X151844142Y-145673819D01*
X151891761Y-145769057D01*
X151891761Y-145911914D01*
X151844142Y-146007152D01*
X151796523Y-146054771D01*
X151701285Y-146102390D01*
X151320333Y-146102390D01*
X152891761Y-146483342D02*
X152844142Y-146530961D01*
X152701285Y-146578580D01*
X152606047Y-146578580D01*
X152463190Y-146530961D01*
X152367952Y-146435723D01*
X152320333Y-146340485D01*
X152272714Y-146150009D01*
X152272714Y-146007152D01*
X152320333Y-145816676D01*
X152367952Y-145721438D01*
X152463190Y-145626200D01*
X152606047Y-145578580D01*
X152701285Y-145578580D01*
X152844142Y-145626200D01*
X152891761Y-145673819D01*
X153653666Y-146054771D02*
X153796523Y-146102390D01*
X153844142Y-146150009D01*
X153891761Y-146245247D01*
X153891761Y-146388104D01*
X153844142Y-146483342D01*
X153796523Y-146530961D01*
X153701285Y-146578580D01*
X153320333Y-146578580D01*
X153320333Y-145578580D01*
X153653666Y-145578580D01*
X153748904Y-145626200D01*
X153796523Y-145673819D01*
X153844142Y-145769057D01*
X153844142Y-145864295D01*
X153796523Y-145959533D01*
X153748904Y-146007152D01*
X153653666Y-146054771D01*
X153320333Y-146054771D01*
X154939380Y-145578580D02*
X155272714Y-146578580D01*
X155606047Y-145578580D01*
X156463190Y-146578580D02*
X155891761Y-146578580D01*
X156177476Y-146578580D02*
X156177476Y-145578580D01*
X156082238Y-145721438D01*
X155987000Y-145816676D01*
X155891761Y-145864295D01*
X156891761Y-146483342D02*
X156939380Y-146530961D01*
X156891761Y-146578580D01*
X156844142Y-146530961D01*
X156891761Y-146483342D01*
X156891761Y-146578580D01*
X157558428Y-145578580D02*
X157653666Y-145578580D01*
X157748904Y-145626200D01*
X157796523Y-145673819D01*
X157844142Y-145769057D01*
X157891761Y-145959533D01*
X157891761Y-146197628D01*
X157844142Y-146388104D01*
X157796523Y-146483342D01*
X157748904Y-146530961D01*
X157653666Y-146578580D01*
X157558428Y-146578580D01*
X157463190Y-146530961D01*
X157415571Y-146483342D01*
X157367952Y-146388104D01*
X157320333Y-146197628D01*
X157320333Y-145959533D01*
X157367952Y-145769057D01*
X157415571Y-145673819D01*
X157463190Y-145626200D01*
X157558428Y-145578580D01*
D12*
G04 #@! TO.C,R11*
X168122600Y-132078600D02*
X168122600Y-136578600D01*
X168122600Y-150318600D02*
X168122600Y-145818600D01*
X166402600Y-136578600D02*
X166402600Y-145818600D01*
X169842600Y-136578600D02*
X166402600Y-136578600D01*
X169842600Y-145818600D02*
X169842600Y-136578600D01*
X166402600Y-145818600D02*
X169842600Y-145818600D01*
G04 #@! TO.C,R10*
X174117000Y-133958200D02*
X174117000Y-138458200D01*
X174117000Y-152198200D02*
X174117000Y-147698200D01*
X172397000Y-138458200D02*
X172397000Y-147698200D01*
X175837000Y-138458200D02*
X172397000Y-138458200D01*
X175837000Y-147698200D02*
X175837000Y-138458200D01*
X172397000Y-147698200D02*
X175837000Y-147698200D01*
G04 #@! TO.C,R338*
X171730800Y-83566000D02*
X167230800Y-83566000D01*
X153490800Y-83566000D02*
X157990800Y-83566000D01*
X167230800Y-81846000D02*
X157990800Y-81846000D01*
X167230800Y-85286000D02*
X167230800Y-81846000D01*
X157990800Y-85286000D02*
X167230800Y-85286000D01*
X157990800Y-81846000D02*
X157990800Y-85286000D01*
G04 #@! TO.C,R337*
X156973400Y-78917800D02*
X152473400Y-78917800D01*
X138733400Y-78917800D02*
X143233400Y-78917800D01*
X152473400Y-77197800D02*
X143233400Y-77197800D01*
X152473400Y-80637800D02*
X152473400Y-77197800D01*
X143233400Y-80637800D02*
X152473400Y-80637800D01*
X143233400Y-77197800D02*
X143233400Y-80637800D01*
G04 #@! TO.C,R336*
X141784200Y-74777600D02*
X137284200Y-74777600D01*
X123544200Y-74777600D02*
X128044200Y-74777600D01*
X137284200Y-73057600D02*
X128044200Y-73057600D01*
X137284200Y-76497600D02*
X137284200Y-73057600D01*
X128044200Y-76497600D02*
X137284200Y-76497600D01*
X128044200Y-73057600D02*
X128044200Y-76497600D01*
G04 #@! TO.C,R335*
X126391800Y-70434200D02*
X121891800Y-70434200D01*
X108151800Y-70434200D02*
X112651800Y-70434200D01*
X121891800Y-68714200D02*
X112651800Y-68714200D01*
X121891800Y-72154200D02*
X121891800Y-68714200D01*
X112651800Y-72154200D02*
X121891800Y-72154200D01*
X112651800Y-68714200D02*
X112651800Y-72154200D01*
G04 #@! TO.C,R334*
X111405800Y-66014600D02*
X106905800Y-66014600D01*
X93165800Y-66014600D02*
X97665800Y-66014600D01*
X106905800Y-64294600D02*
X97665800Y-64294600D01*
X106905800Y-67734600D02*
X106905800Y-64294600D01*
X97665800Y-67734600D02*
X106905800Y-67734600D01*
X97665800Y-64294600D02*
X97665800Y-67734600D01*
G04 #@! TO.C,R333*
X96445200Y-61544200D02*
X91945200Y-61544200D01*
X78205200Y-61544200D02*
X82705200Y-61544200D01*
X91945200Y-59824200D02*
X82705200Y-59824200D01*
X91945200Y-63264200D02*
X91945200Y-59824200D01*
X82705200Y-63264200D02*
X91945200Y-63264200D01*
X82705200Y-59824200D02*
X82705200Y-63264200D01*
G04 #@! TO.C,R332*
X172162600Y-29997400D02*
X167662600Y-29997400D01*
X153922600Y-29997400D02*
X158422600Y-29997400D01*
X167662600Y-28277400D02*
X158422600Y-28277400D01*
X167662600Y-31717400D02*
X167662600Y-28277400D01*
X158422600Y-31717400D02*
X167662600Y-31717400D01*
X158422600Y-28277400D02*
X158422600Y-31717400D01*
G04 #@! TO.C,R331*
X143335000Y-23070400D02*
X143335000Y-26510400D01*
X143335000Y-26510400D02*
X152575000Y-26510400D01*
X152575000Y-26510400D02*
X152575000Y-23070400D01*
X152575000Y-23070400D02*
X143335000Y-23070400D01*
X138835000Y-24790400D02*
X143335000Y-24790400D01*
X157075000Y-24790400D02*
X152575000Y-24790400D01*
G04 #@! TO.C,R330*
X128425200Y-17888800D02*
X128425200Y-21328800D01*
X128425200Y-21328800D02*
X137665200Y-21328800D01*
X137665200Y-21328800D02*
X137665200Y-17888800D01*
X137665200Y-17888800D02*
X128425200Y-17888800D01*
X123925200Y-19608800D02*
X128425200Y-19608800D01*
X142165200Y-19608800D02*
X137665200Y-19608800D01*
G04 #@! TO.C,RJ1*
X197803000Y-145432400D02*
X198303000Y-144932400D01*
X197803000Y-144432400D02*
X197803000Y-145432400D01*
X198303000Y-144932400D02*
X197803000Y-144432400D01*
X198488000Y-159012400D02*
X214008000Y-159012400D01*
X214008000Y-141052400D02*
X214008000Y-159012400D01*
X214008000Y-141052400D02*
X198488000Y-141052400D01*
X198488000Y-141052400D02*
X198488000Y-159012400D01*
G04 #@! TO.C,RJ0*
X176594000Y-145432400D02*
X177094000Y-144932400D01*
X176594000Y-144432400D02*
X176594000Y-145432400D01*
X177094000Y-144932400D02*
X176594000Y-144432400D01*
X177279000Y-159012400D02*
X192799000Y-159012400D01*
X192799000Y-141052400D02*
X192799000Y-159012400D01*
X192799000Y-141052400D02*
X177279000Y-141052400D01*
X177279000Y-141052400D02*
X177279000Y-159012400D01*
G04 #@! TO.C,CP0*
X204580800Y-102768400D02*
G75*
G03X204580800Y-102768400I-2620000J0D01*
G01*
X201960800Y-100188400D02*
X201960800Y-105348400D01*
X202000800Y-100188400D02*
X202000800Y-105348400D01*
X202040800Y-100189400D02*
X202040800Y-105347400D01*
X202080800Y-100190400D02*
X202080800Y-105346400D01*
X202120800Y-100192400D02*
X202120800Y-105344400D01*
X202160800Y-100195400D02*
X202160800Y-105341400D01*
X202200800Y-100199400D02*
X202200800Y-101728400D01*
X202200800Y-103808400D02*
X202200800Y-105337400D01*
X202240800Y-100203400D02*
X202240800Y-101728400D01*
X202240800Y-103808400D02*
X202240800Y-105333400D01*
X202280800Y-100207400D02*
X202280800Y-101728400D01*
X202280800Y-103808400D02*
X202280800Y-105329400D01*
X202320800Y-100212400D02*
X202320800Y-101728400D01*
X202320800Y-103808400D02*
X202320800Y-105324400D01*
X202360800Y-100218400D02*
X202360800Y-101728400D01*
X202360800Y-103808400D02*
X202360800Y-105318400D01*
X202400800Y-100225400D02*
X202400800Y-101728400D01*
X202400800Y-103808400D02*
X202400800Y-105311400D01*
X202440800Y-100232400D02*
X202440800Y-101728400D01*
X202440800Y-103808400D02*
X202440800Y-105304400D01*
X202480800Y-100240400D02*
X202480800Y-101728400D01*
X202480800Y-103808400D02*
X202480800Y-105296400D01*
X202520800Y-100248400D02*
X202520800Y-101728400D01*
X202520800Y-103808400D02*
X202520800Y-105288400D01*
X202560800Y-100257400D02*
X202560800Y-101728400D01*
X202560800Y-103808400D02*
X202560800Y-105279400D01*
X202600800Y-100267400D02*
X202600800Y-101728400D01*
X202600800Y-103808400D02*
X202600800Y-105269400D01*
X202640800Y-100277400D02*
X202640800Y-101728400D01*
X202640800Y-103808400D02*
X202640800Y-105259400D01*
X202681800Y-100288400D02*
X202681800Y-101728400D01*
X202681800Y-103808400D02*
X202681800Y-105248400D01*
X202721800Y-100300400D02*
X202721800Y-101728400D01*
X202721800Y-103808400D02*
X202721800Y-105236400D01*
X202761800Y-100313400D02*
X202761800Y-101728400D01*
X202761800Y-103808400D02*
X202761800Y-105223400D01*
X202801800Y-100326400D02*
X202801800Y-101728400D01*
X202801800Y-103808400D02*
X202801800Y-105210400D01*
X202841800Y-100340400D02*
X202841800Y-101728400D01*
X202841800Y-103808400D02*
X202841800Y-105196400D01*
X202881800Y-100354400D02*
X202881800Y-101728400D01*
X202881800Y-103808400D02*
X202881800Y-105182400D01*
X202921800Y-100370400D02*
X202921800Y-101728400D01*
X202921800Y-103808400D02*
X202921800Y-105166400D01*
X202961800Y-100386400D02*
X202961800Y-101728400D01*
X202961800Y-103808400D02*
X202961800Y-105150400D01*
X203001800Y-100403400D02*
X203001800Y-101728400D01*
X203001800Y-103808400D02*
X203001800Y-105133400D01*
X203041800Y-100420400D02*
X203041800Y-101728400D01*
X203041800Y-103808400D02*
X203041800Y-105116400D01*
X203081800Y-100439400D02*
X203081800Y-101728400D01*
X203081800Y-103808400D02*
X203081800Y-105097400D01*
X203121800Y-100458400D02*
X203121800Y-101728400D01*
X203121800Y-103808400D02*
X203121800Y-105078400D01*
X203161800Y-100478400D02*
X203161800Y-101728400D01*
X203161800Y-103808400D02*
X203161800Y-105058400D01*
X203201800Y-100500400D02*
X203201800Y-101728400D01*
X203201800Y-103808400D02*
X203201800Y-105036400D01*
X203241800Y-100521400D02*
X203241800Y-101728400D01*
X203241800Y-103808400D02*
X203241800Y-105015400D01*
X203281800Y-100544400D02*
X203281800Y-101728400D01*
X203281800Y-103808400D02*
X203281800Y-104992400D01*
X203321800Y-100568400D02*
X203321800Y-101728400D01*
X203321800Y-103808400D02*
X203321800Y-104968400D01*
X203361800Y-100593400D02*
X203361800Y-101728400D01*
X203361800Y-103808400D02*
X203361800Y-104943400D01*
X203401800Y-100619400D02*
X203401800Y-101728400D01*
X203401800Y-103808400D02*
X203401800Y-104917400D01*
X203441800Y-100646400D02*
X203441800Y-101728400D01*
X203441800Y-103808400D02*
X203441800Y-104890400D01*
X203481800Y-100673400D02*
X203481800Y-101728400D01*
X203481800Y-103808400D02*
X203481800Y-104863400D01*
X203521800Y-100703400D02*
X203521800Y-101728400D01*
X203521800Y-103808400D02*
X203521800Y-104833400D01*
X203561800Y-100733400D02*
X203561800Y-101728400D01*
X203561800Y-103808400D02*
X203561800Y-104803400D01*
X203601800Y-100764400D02*
X203601800Y-101728400D01*
X203601800Y-103808400D02*
X203601800Y-104772400D01*
X203641800Y-100797400D02*
X203641800Y-101728400D01*
X203641800Y-103808400D02*
X203641800Y-104739400D01*
X203681800Y-100831400D02*
X203681800Y-101728400D01*
X203681800Y-103808400D02*
X203681800Y-104705400D01*
X203721800Y-100867400D02*
X203721800Y-101728400D01*
X203721800Y-103808400D02*
X203721800Y-104669400D01*
X203761800Y-100904400D02*
X203761800Y-101728400D01*
X203761800Y-103808400D02*
X203761800Y-104632400D01*
X203801800Y-100942400D02*
X203801800Y-101728400D01*
X203801800Y-103808400D02*
X203801800Y-104594400D01*
X203841800Y-100983400D02*
X203841800Y-101728400D01*
X203841800Y-103808400D02*
X203841800Y-104553400D01*
X203881800Y-101025400D02*
X203881800Y-101728400D01*
X203881800Y-103808400D02*
X203881800Y-104511400D01*
X203921800Y-101069400D02*
X203921800Y-101728400D01*
X203921800Y-103808400D02*
X203921800Y-104467400D01*
X203961800Y-101115400D02*
X203961800Y-101728400D01*
X203961800Y-103808400D02*
X203961800Y-104421400D01*
X204001800Y-101163400D02*
X204001800Y-101728400D01*
X204001800Y-103808400D02*
X204001800Y-104373400D01*
X204041800Y-101214400D02*
X204041800Y-101728400D01*
X204041800Y-103808400D02*
X204041800Y-104322400D01*
X204081800Y-101268400D02*
X204081800Y-101728400D01*
X204081800Y-103808400D02*
X204081800Y-104268400D01*
X204121800Y-101325400D02*
X204121800Y-101728400D01*
X204121800Y-103808400D02*
X204121800Y-104211400D01*
X204161800Y-101385400D02*
X204161800Y-101728400D01*
X204161800Y-103808400D02*
X204161800Y-104151400D01*
X204201800Y-101449400D02*
X204201800Y-101728400D01*
X204201800Y-103808400D02*
X204201800Y-104087400D01*
X204241800Y-101517400D02*
X204241800Y-101728400D01*
X204241800Y-103808400D02*
X204241800Y-104019400D01*
X204281800Y-101590400D02*
X204281800Y-103946400D01*
X204321800Y-101670400D02*
X204321800Y-103866400D01*
X204361800Y-101757400D02*
X204361800Y-103779400D01*
X204401800Y-101853400D02*
X204401800Y-103683400D01*
X204441800Y-101963400D02*
X204441800Y-103573400D01*
X204481800Y-102091400D02*
X204481800Y-103445400D01*
X204521800Y-102250400D02*
X204521800Y-103286400D01*
X204561800Y-102484400D02*
X204561800Y-103052400D01*
X199156025Y-101293400D02*
X199656025Y-101293400D01*
X199406025Y-101043400D02*
X199406025Y-101543400D01*
G04 #@! TO.C,C0.1nF0*
X197081000Y-135077200D02*
G75*
G03X197081000Y-135077200I-2120000J0D01*
G01*
X194961000Y-137157200D02*
X194961000Y-132997200D01*
X194921000Y-137157200D02*
X194921000Y-132997200D01*
X194881000Y-137156200D02*
X194881000Y-132998200D01*
X194841000Y-137154200D02*
X194841000Y-133000200D01*
X194801000Y-137151200D02*
X194801000Y-133003200D01*
X194761000Y-137148200D02*
X194761000Y-135917200D01*
X194761000Y-134237200D02*
X194761000Y-133006200D01*
X194721000Y-137144200D02*
X194721000Y-135917200D01*
X194721000Y-134237200D02*
X194721000Y-133010200D01*
X194681000Y-137139200D02*
X194681000Y-135917200D01*
X194681000Y-134237200D02*
X194681000Y-133015200D01*
X194641000Y-137133200D02*
X194641000Y-135917200D01*
X194641000Y-134237200D02*
X194641000Y-133021200D01*
X194601000Y-137127200D02*
X194601000Y-135917200D01*
X194601000Y-134237200D02*
X194601000Y-133027200D01*
X194561000Y-137119200D02*
X194561000Y-135917200D01*
X194561000Y-134237200D02*
X194561000Y-133035200D01*
X194521000Y-137111200D02*
X194521000Y-135917200D01*
X194521000Y-134237200D02*
X194521000Y-133043200D01*
X194481000Y-137102200D02*
X194481000Y-135917200D01*
X194481000Y-134237200D02*
X194481000Y-133052200D01*
X194441000Y-137093200D02*
X194441000Y-135917200D01*
X194441000Y-134237200D02*
X194441000Y-133061200D01*
X194401000Y-137082200D02*
X194401000Y-135917200D01*
X194401000Y-134237200D02*
X194401000Y-133072200D01*
X194361000Y-137071200D02*
X194361000Y-135917200D01*
X194361000Y-134237200D02*
X194361000Y-133083200D01*
X194321000Y-137059200D02*
X194321000Y-135917200D01*
X194321000Y-134237200D02*
X194321000Y-133095200D01*
X194281000Y-137045200D02*
X194281000Y-135917200D01*
X194281000Y-134237200D02*
X194281000Y-133109200D01*
X194240000Y-137031200D02*
X194240000Y-135917200D01*
X194240000Y-134237200D02*
X194240000Y-133123200D01*
X194200000Y-137017200D02*
X194200000Y-135917200D01*
X194200000Y-134237200D02*
X194200000Y-133137200D01*
X194160000Y-137001200D02*
X194160000Y-135917200D01*
X194160000Y-134237200D02*
X194160000Y-133153200D01*
X194120000Y-136984200D02*
X194120000Y-135917200D01*
X194120000Y-134237200D02*
X194120000Y-133170200D01*
X194080000Y-136966200D02*
X194080000Y-135917200D01*
X194080000Y-134237200D02*
X194080000Y-133188200D01*
X194040000Y-136947200D02*
X194040000Y-135917200D01*
X194040000Y-134237200D02*
X194040000Y-133207200D01*
X194000000Y-136928200D02*
X194000000Y-135917200D01*
X194000000Y-134237200D02*
X194000000Y-133226200D01*
X193960000Y-136907200D02*
X193960000Y-135917200D01*
X193960000Y-134237200D02*
X193960000Y-133247200D01*
X193920000Y-136885200D02*
X193920000Y-135917200D01*
X193920000Y-134237200D02*
X193920000Y-133269200D01*
X193880000Y-136862200D02*
X193880000Y-135917200D01*
X193880000Y-134237200D02*
X193880000Y-133292200D01*
X193840000Y-136837200D02*
X193840000Y-135917200D01*
X193840000Y-134237200D02*
X193840000Y-133317200D01*
X193800000Y-136812200D02*
X193800000Y-135917200D01*
X193800000Y-134237200D02*
X193800000Y-133342200D01*
X193760000Y-136785200D02*
X193760000Y-135917200D01*
X193760000Y-134237200D02*
X193760000Y-133369200D01*
X193720000Y-136757200D02*
X193720000Y-135917200D01*
X193720000Y-134237200D02*
X193720000Y-133397200D01*
X193680000Y-136727200D02*
X193680000Y-135917200D01*
X193680000Y-134237200D02*
X193680000Y-133427200D01*
X193640000Y-136696200D02*
X193640000Y-135917200D01*
X193640000Y-134237200D02*
X193640000Y-133458200D01*
X193600000Y-136664200D02*
X193600000Y-135917200D01*
X193600000Y-134237200D02*
X193600000Y-133490200D01*
X193560000Y-136629200D02*
X193560000Y-135917200D01*
X193560000Y-134237200D02*
X193560000Y-133525200D01*
X193520000Y-136593200D02*
X193520000Y-135917200D01*
X193520000Y-134237200D02*
X193520000Y-133561200D01*
X193480000Y-136555200D02*
X193480000Y-135917200D01*
X193480000Y-134237200D02*
X193480000Y-133599200D01*
X193440000Y-136515200D02*
X193440000Y-135917200D01*
X193440000Y-134237200D02*
X193440000Y-133639200D01*
X193400000Y-136473200D02*
X193400000Y-135917200D01*
X193400000Y-134237200D02*
X193400000Y-133681200D01*
X193360000Y-136428200D02*
X193360000Y-135917200D01*
X193360000Y-134237200D02*
X193360000Y-133726200D01*
X193320000Y-136381200D02*
X193320000Y-135917200D01*
X193320000Y-134237200D02*
X193320000Y-133773200D01*
X193280000Y-136331200D02*
X193280000Y-135917200D01*
X193280000Y-134237200D02*
X193280000Y-133823200D01*
X193240000Y-136277200D02*
X193240000Y-135917200D01*
X193240000Y-134237200D02*
X193240000Y-133877200D01*
X193200000Y-136219200D02*
X193200000Y-135917200D01*
X193200000Y-134237200D02*
X193200000Y-133935200D01*
X193160000Y-136157200D02*
X193160000Y-135917200D01*
X193160000Y-134237200D02*
X193160000Y-133997200D01*
X193120000Y-136090200D02*
X193120000Y-134064200D01*
X193080000Y-136017200D02*
X193080000Y-134137200D01*
X193040000Y-135936200D02*
X193040000Y-134218200D01*
X193000000Y-135845200D02*
X193000000Y-134309200D01*
X192960000Y-135741200D02*
X192960000Y-134413200D01*
X192920000Y-135614200D02*
X192920000Y-134540200D01*
X192880000Y-135447200D02*
X192880000Y-134707200D01*
X197230801Y-136272200D02*
X196830801Y-136272200D01*
X197030801Y-136472200D02*
X197030801Y-136072200D01*
G04 #@! TO.C,+5V_IN1*
X198120000Y-86410800D02*
X208280000Y-86410800D01*
X198120000Y-85140800D02*
X198120000Y-92760800D01*
X198120000Y-92760800D02*
X208280000Y-92760800D01*
X208280000Y-92760800D02*
X208280000Y-85140800D01*
X208280000Y-85140800D02*
X198120000Y-85140800D01*
G04 #@! TO.C,GND1*
X203190800Y-124647000D02*
X205850800Y-124647000D01*
X203190800Y-124587000D02*
X203190800Y-124647000D01*
X205850800Y-124587000D02*
X205850800Y-124647000D01*
X203190800Y-124587000D02*
X205850800Y-124587000D01*
X203190800Y-123317000D02*
X203190800Y-121987000D01*
X203190800Y-121987000D02*
X204520800Y-121987000D01*
D13*
G04 #@! TO.C,RS-485*
X191731900Y-134404100D02*
X191731900Y-130162300D01*
X186474100Y-130162300D02*
X186474100Y-134404100D01*
G04 #@! TO.C,Prt_IC1*
X180098700Y-131691339D02*
X180098700Y-132367061D01*
X180098700Y-133654800D02*
X181749700Y-133654800D01*
X181749700Y-133654800D02*
X181749700Y-132641340D01*
X181749700Y-130403600D02*
X180098700Y-130403600D01*
X181749700Y-131417060D02*
X181749700Y-130403600D01*
D12*
G04 #@! TO.C,J3*
X195774000Y-127009200D02*
X198434000Y-127009200D01*
X195774000Y-99009200D02*
X195774000Y-127009200D01*
X198434000Y-99009200D02*
X198434000Y-127009200D01*
X195774000Y-99009200D02*
X198434000Y-99009200D01*
X195774000Y-97739200D02*
X195774000Y-96409200D01*
X195774000Y-96409200D02*
X197104000Y-96409200D01*
G04 #@! TO.C,J2*
X175454000Y-127009200D02*
X178114000Y-127009200D01*
X175454000Y-88849200D02*
X175454000Y-127009200D01*
X178114000Y-88849200D02*
X178114000Y-127009200D01*
X175454000Y-88849200D02*
X178114000Y-88849200D01*
X175454000Y-87579200D02*
X175454000Y-86249200D01*
X175454000Y-86249200D02*
X176784000Y-86249200D01*
G04 #@! TD*
G04 #@! TO.C,R11*
D11*
X165854980Y-141841457D02*
X165378790Y-142174790D01*
X165854980Y-142412885D02*
X164854980Y-142412885D01*
X164854980Y-142031933D01*
X164902600Y-141936695D01*
X164950219Y-141889076D01*
X165045457Y-141841457D01*
X165188314Y-141841457D01*
X165283552Y-141889076D01*
X165331171Y-141936695D01*
X165378790Y-142031933D01*
X165378790Y-142412885D01*
X165854980Y-140889076D02*
X165854980Y-141460504D01*
X165854980Y-141174790D02*
X164854980Y-141174790D01*
X164997838Y-141270028D01*
X165093076Y-141365266D01*
X165140695Y-141460504D01*
X165854980Y-139936695D02*
X165854980Y-140508123D01*
X165854980Y-140222409D02*
X164854980Y-140222409D01*
X164997838Y-140317647D01*
X165093076Y-140412885D01*
X165140695Y-140508123D01*
G04 #@! TO.C,R10*
X171849380Y-143721057D02*
X171373190Y-144054390D01*
X171849380Y-144292485D02*
X170849380Y-144292485D01*
X170849380Y-143911533D01*
X170897000Y-143816295D01*
X170944619Y-143768676D01*
X171039857Y-143721057D01*
X171182714Y-143721057D01*
X171277952Y-143768676D01*
X171325571Y-143816295D01*
X171373190Y-143911533D01*
X171373190Y-144292485D01*
X171849380Y-142768676D02*
X171849380Y-143340104D01*
X171849380Y-143054390D02*
X170849380Y-143054390D01*
X170992238Y-143149628D01*
X171087476Y-143244866D01*
X171135095Y-143340104D01*
X170849380Y-142149628D02*
X170849380Y-142054390D01*
X170897000Y-141959152D01*
X170944619Y-141911533D01*
X171039857Y-141863914D01*
X171230333Y-141816295D01*
X171468428Y-141816295D01*
X171658904Y-141863914D01*
X171754142Y-141911533D01*
X171801761Y-141959152D01*
X171849380Y-142054390D01*
X171849380Y-142149628D01*
X171801761Y-142244866D01*
X171754142Y-142292485D01*
X171658904Y-142340104D01*
X171468428Y-142387723D01*
X171230333Y-142387723D01*
X171039857Y-142340104D01*
X170944619Y-142292485D01*
X170897000Y-142244866D01*
X170849380Y-142149628D01*
G04 #@! TO.C,R338*
X147877352Y-84018380D02*
X147544019Y-83542190D01*
X147305923Y-84018380D02*
X147305923Y-83018380D01*
X147686876Y-83018380D01*
X147782114Y-83066000D01*
X147829733Y-83113619D01*
X147877352Y-83208857D01*
X147877352Y-83351714D01*
X147829733Y-83446952D01*
X147782114Y-83494571D01*
X147686876Y-83542190D01*
X147305923Y-83542190D01*
X148210685Y-83018380D02*
X148829733Y-83018380D01*
X148496400Y-83399333D01*
X148639257Y-83399333D01*
X148734495Y-83446952D01*
X148782114Y-83494571D01*
X148829733Y-83589809D01*
X148829733Y-83827904D01*
X148782114Y-83923142D01*
X148734495Y-83970761D01*
X148639257Y-84018380D01*
X148353542Y-84018380D01*
X148258304Y-83970761D01*
X148210685Y-83923142D01*
X149163066Y-83018380D02*
X149782114Y-83018380D01*
X149448780Y-83399333D01*
X149591638Y-83399333D01*
X149686876Y-83446952D01*
X149734495Y-83494571D01*
X149782114Y-83589809D01*
X149782114Y-83827904D01*
X149734495Y-83923142D01*
X149686876Y-83970761D01*
X149591638Y-84018380D01*
X149305923Y-84018380D01*
X149210685Y-83970761D01*
X149163066Y-83923142D01*
X150353542Y-83446952D02*
X150258304Y-83399333D01*
X150210685Y-83351714D01*
X150163066Y-83256476D01*
X150163066Y-83208857D01*
X150210685Y-83113619D01*
X150258304Y-83066000D01*
X150353542Y-83018380D01*
X150544019Y-83018380D01*
X150639257Y-83066000D01*
X150686876Y-83113619D01*
X150734495Y-83208857D01*
X150734495Y-83256476D01*
X150686876Y-83351714D01*
X150639257Y-83399333D01*
X150544019Y-83446952D01*
X150353542Y-83446952D01*
X150258304Y-83494571D01*
X150210685Y-83542190D01*
X150163066Y-83637428D01*
X150163066Y-83827904D01*
X150210685Y-83923142D01*
X150258304Y-83970761D01*
X150353542Y-84018380D01*
X150544019Y-84018380D01*
X150639257Y-83970761D01*
X150686876Y-83923142D01*
X150734495Y-83827904D01*
X150734495Y-83637428D01*
X150686876Y-83542190D01*
X150639257Y-83494571D01*
X150544019Y-83446952D01*
G04 #@! TO.C,R337*
X133246952Y-79370180D02*
X132913619Y-78893990D01*
X132675523Y-79370180D02*
X132675523Y-78370180D01*
X133056476Y-78370180D01*
X133151714Y-78417800D01*
X133199333Y-78465419D01*
X133246952Y-78560657D01*
X133246952Y-78703514D01*
X133199333Y-78798752D01*
X133151714Y-78846371D01*
X133056476Y-78893990D01*
X132675523Y-78893990D01*
X133580285Y-78370180D02*
X134199333Y-78370180D01*
X133866000Y-78751133D01*
X134008857Y-78751133D01*
X134104095Y-78798752D01*
X134151714Y-78846371D01*
X134199333Y-78941609D01*
X134199333Y-79179704D01*
X134151714Y-79274942D01*
X134104095Y-79322561D01*
X134008857Y-79370180D01*
X133723142Y-79370180D01*
X133627904Y-79322561D01*
X133580285Y-79274942D01*
X134532666Y-78370180D02*
X135151714Y-78370180D01*
X134818380Y-78751133D01*
X134961238Y-78751133D01*
X135056476Y-78798752D01*
X135104095Y-78846371D01*
X135151714Y-78941609D01*
X135151714Y-79179704D01*
X135104095Y-79274942D01*
X135056476Y-79322561D01*
X134961238Y-79370180D01*
X134675523Y-79370180D01*
X134580285Y-79322561D01*
X134532666Y-79274942D01*
X135485047Y-78370180D02*
X136151714Y-78370180D01*
X135723142Y-79370180D01*
G04 #@! TO.C,R336*
X117854552Y-75102980D02*
X117521219Y-74626790D01*
X117283123Y-75102980D02*
X117283123Y-74102980D01*
X117664076Y-74102980D01*
X117759314Y-74150600D01*
X117806933Y-74198219D01*
X117854552Y-74293457D01*
X117854552Y-74436314D01*
X117806933Y-74531552D01*
X117759314Y-74579171D01*
X117664076Y-74626790D01*
X117283123Y-74626790D01*
X118187885Y-74102980D02*
X118806933Y-74102980D01*
X118473600Y-74483933D01*
X118616457Y-74483933D01*
X118711695Y-74531552D01*
X118759314Y-74579171D01*
X118806933Y-74674409D01*
X118806933Y-74912504D01*
X118759314Y-75007742D01*
X118711695Y-75055361D01*
X118616457Y-75102980D01*
X118330742Y-75102980D01*
X118235504Y-75055361D01*
X118187885Y-75007742D01*
X119140266Y-74102980D02*
X119759314Y-74102980D01*
X119425980Y-74483933D01*
X119568838Y-74483933D01*
X119664076Y-74531552D01*
X119711695Y-74579171D01*
X119759314Y-74674409D01*
X119759314Y-74912504D01*
X119711695Y-75007742D01*
X119664076Y-75055361D01*
X119568838Y-75102980D01*
X119283123Y-75102980D01*
X119187885Y-75055361D01*
X119140266Y-75007742D01*
X120616457Y-74102980D02*
X120425980Y-74102980D01*
X120330742Y-74150600D01*
X120283123Y-74198219D01*
X120187885Y-74341076D01*
X120140266Y-74531552D01*
X120140266Y-74912504D01*
X120187885Y-75007742D01*
X120235504Y-75055361D01*
X120330742Y-75102980D01*
X120521219Y-75102980D01*
X120616457Y-75055361D01*
X120664076Y-75007742D01*
X120711695Y-74912504D01*
X120711695Y-74674409D01*
X120664076Y-74579171D01*
X120616457Y-74531552D01*
X120521219Y-74483933D01*
X120330742Y-74483933D01*
X120235504Y-74531552D01*
X120187885Y-74579171D01*
X120140266Y-74674409D01*
G04 #@! TO.C,R335*
X102157352Y-70759580D02*
X101824019Y-70283390D01*
X101585923Y-70759580D02*
X101585923Y-69759580D01*
X101966876Y-69759580D01*
X102062114Y-69807200D01*
X102109733Y-69854819D01*
X102157352Y-69950057D01*
X102157352Y-70092914D01*
X102109733Y-70188152D01*
X102062114Y-70235771D01*
X101966876Y-70283390D01*
X101585923Y-70283390D01*
X102490685Y-69759580D02*
X103109733Y-69759580D01*
X102776400Y-70140533D01*
X102919257Y-70140533D01*
X103014495Y-70188152D01*
X103062114Y-70235771D01*
X103109733Y-70331009D01*
X103109733Y-70569104D01*
X103062114Y-70664342D01*
X103014495Y-70711961D01*
X102919257Y-70759580D01*
X102633542Y-70759580D01*
X102538304Y-70711961D01*
X102490685Y-70664342D01*
X103443066Y-69759580D02*
X104062114Y-69759580D01*
X103728780Y-70140533D01*
X103871638Y-70140533D01*
X103966876Y-70188152D01*
X104014495Y-70235771D01*
X104062114Y-70331009D01*
X104062114Y-70569104D01*
X104014495Y-70664342D01*
X103966876Y-70711961D01*
X103871638Y-70759580D01*
X103585923Y-70759580D01*
X103490685Y-70711961D01*
X103443066Y-70664342D01*
X104966876Y-69759580D02*
X104490685Y-69759580D01*
X104443066Y-70235771D01*
X104490685Y-70188152D01*
X104585923Y-70140533D01*
X104824019Y-70140533D01*
X104919257Y-70188152D01*
X104966876Y-70235771D01*
X105014495Y-70331009D01*
X105014495Y-70569104D01*
X104966876Y-70664342D01*
X104919257Y-70711961D01*
X104824019Y-70759580D01*
X104585923Y-70759580D01*
X104490685Y-70711961D01*
X104443066Y-70664342D01*
G04 #@! TO.C,R334*
X87704752Y-66390780D02*
X87371419Y-65914590D01*
X87133323Y-66390780D02*
X87133323Y-65390780D01*
X87514276Y-65390780D01*
X87609514Y-65438400D01*
X87657133Y-65486019D01*
X87704752Y-65581257D01*
X87704752Y-65724114D01*
X87657133Y-65819352D01*
X87609514Y-65866971D01*
X87514276Y-65914590D01*
X87133323Y-65914590D01*
X88038085Y-65390780D02*
X88657133Y-65390780D01*
X88323800Y-65771733D01*
X88466657Y-65771733D01*
X88561895Y-65819352D01*
X88609514Y-65866971D01*
X88657133Y-65962209D01*
X88657133Y-66200304D01*
X88609514Y-66295542D01*
X88561895Y-66343161D01*
X88466657Y-66390780D01*
X88180942Y-66390780D01*
X88085704Y-66343161D01*
X88038085Y-66295542D01*
X88990466Y-65390780D02*
X89609514Y-65390780D01*
X89276180Y-65771733D01*
X89419038Y-65771733D01*
X89514276Y-65819352D01*
X89561895Y-65866971D01*
X89609514Y-65962209D01*
X89609514Y-66200304D01*
X89561895Y-66295542D01*
X89514276Y-66343161D01*
X89419038Y-66390780D01*
X89133323Y-66390780D01*
X89038085Y-66343161D01*
X88990466Y-66295542D01*
X90466657Y-65724114D02*
X90466657Y-66390780D01*
X90228561Y-65343161D02*
X89990466Y-66057447D01*
X90609514Y-66057447D01*
G04 #@! TO.C,R333*
X72515552Y-62047380D02*
X72182219Y-61571190D01*
X71944123Y-62047380D02*
X71944123Y-61047380D01*
X72325076Y-61047380D01*
X72420314Y-61095000D01*
X72467933Y-61142619D01*
X72515552Y-61237857D01*
X72515552Y-61380714D01*
X72467933Y-61475952D01*
X72420314Y-61523571D01*
X72325076Y-61571190D01*
X71944123Y-61571190D01*
X72848885Y-61047380D02*
X73467933Y-61047380D01*
X73134600Y-61428333D01*
X73277457Y-61428333D01*
X73372695Y-61475952D01*
X73420314Y-61523571D01*
X73467933Y-61618809D01*
X73467933Y-61856904D01*
X73420314Y-61952142D01*
X73372695Y-61999761D01*
X73277457Y-62047380D01*
X72991742Y-62047380D01*
X72896504Y-61999761D01*
X72848885Y-61952142D01*
X73801266Y-61047380D02*
X74420314Y-61047380D01*
X74086980Y-61428333D01*
X74229838Y-61428333D01*
X74325076Y-61475952D01*
X74372695Y-61523571D01*
X74420314Y-61618809D01*
X74420314Y-61856904D01*
X74372695Y-61952142D01*
X74325076Y-61999761D01*
X74229838Y-62047380D01*
X73944123Y-62047380D01*
X73848885Y-61999761D01*
X73801266Y-61952142D01*
X74753647Y-61047380D02*
X75372695Y-61047380D01*
X75039361Y-61428333D01*
X75182219Y-61428333D01*
X75277457Y-61475952D01*
X75325076Y-61523571D01*
X75372695Y-61618809D01*
X75372695Y-61856904D01*
X75325076Y-61952142D01*
X75277457Y-61999761D01*
X75182219Y-62047380D01*
X74896504Y-62047380D01*
X74801266Y-61999761D01*
X74753647Y-61952142D01*
G04 #@! TO.C,R332*
X148359952Y-30271980D02*
X148026619Y-29795790D01*
X147788523Y-30271980D02*
X147788523Y-29271980D01*
X148169476Y-29271980D01*
X148264714Y-29319600D01*
X148312333Y-29367219D01*
X148359952Y-29462457D01*
X148359952Y-29605314D01*
X148312333Y-29700552D01*
X148264714Y-29748171D01*
X148169476Y-29795790D01*
X147788523Y-29795790D01*
X148693285Y-29271980D02*
X149312333Y-29271980D01*
X148979000Y-29652933D01*
X149121857Y-29652933D01*
X149217095Y-29700552D01*
X149264714Y-29748171D01*
X149312333Y-29843409D01*
X149312333Y-30081504D01*
X149264714Y-30176742D01*
X149217095Y-30224361D01*
X149121857Y-30271980D01*
X148836142Y-30271980D01*
X148740904Y-30224361D01*
X148693285Y-30176742D01*
X149645666Y-29271980D02*
X150264714Y-29271980D01*
X149931380Y-29652933D01*
X150074238Y-29652933D01*
X150169476Y-29700552D01*
X150217095Y-29748171D01*
X150264714Y-29843409D01*
X150264714Y-30081504D01*
X150217095Y-30176742D01*
X150169476Y-30224361D01*
X150074238Y-30271980D01*
X149788523Y-30271980D01*
X149693285Y-30224361D01*
X149645666Y-30176742D01*
X150645666Y-29367219D02*
X150693285Y-29319600D01*
X150788523Y-29271980D01*
X151026619Y-29271980D01*
X151121857Y-29319600D01*
X151169476Y-29367219D01*
X151217095Y-29462457D01*
X151217095Y-29557695D01*
X151169476Y-29700552D01*
X150598047Y-30271980D01*
X151217095Y-30271980D01*
G04 #@! TO.C,R331*
X133323152Y-25166580D02*
X132989819Y-24690390D01*
X132751723Y-25166580D02*
X132751723Y-24166580D01*
X133132676Y-24166580D01*
X133227914Y-24214200D01*
X133275533Y-24261819D01*
X133323152Y-24357057D01*
X133323152Y-24499914D01*
X133275533Y-24595152D01*
X133227914Y-24642771D01*
X133132676Y-24690390D01*
X132751723Y-24690390D01*
X133656485Y-24166580D02*
X134275533Y-24166580D01*
X133942200Y-24547533D01*
X134085057Y-24547533D01*
X134180295Y-24595152D01*
X134227914Y-24642771D01*
X134275533Y-24738009D01*
X134275533Y-24976104D01*
X134227914Y-25071342D01*
X134180295Y-25118961D01*
X134085057Y-25166580D01*
X133799342Y-25166580D01*
X133704104Y-25118961D01*
X133656485Y-25071342D01*
X134608866Y-24166580D02*
X135227914Y-24166580D01*
X134894580Y-24547533D01*
X135037438Y-24547533D01*
X135132676Y-24595152D01*
X135180295Y-24642771D01*
X135227914Y-24738009D01*
X135227914Y-24976104D01*
X135180295Y-25071342D01*
X135132676Y-25118961D01*
X135037438Y-25166580D01*
X134751723Y-25166580D01*
X134656485Y-25118961D01*
X134608866Y-25071342D01*
X136180295Y-25166580D02*
X135608866Y-25166580D01*
X135894580Y-25166580D02*
X135894580Y-24166580D01*
X135799342Y-24309438D01*
X135704104Y-24404676D01*
X135608866Y-24452295D01*
G04 #@! TO.C,R330*
X118083152Y-20162780D02*
X117749819Y-19686590D01*
X117511723Y-20162780D02*
X117511723Y-19162780D01*
X117892676Y-19162780D01*
X117987914Y-19210400D01*
X118035533Y-19258019D01*
X118083152Y-19353257D01*
X118083152Y-19496114D01*
X118035533Y-19591352D01*
X117987914Y-19638971D01*
X117892676Y-19686590D01*
X117511723Y-19686590D01*
X118416485Y-19162780D02*
X119035533Y-19162780D01*
X118702200Y-19543733D01*
X118845057Y-19543733D01*
X118940295Y-19591352D01*
X118987914Y-19638971D01*
X119035533Y-19734209D01*
X119035533Y-19972304D01*
X118987914Y-20067542D01*
X118940295Y-20115161D01*
X118845057Y-20162780D01*
X118559342Y-20162780D01*
X118464104Y-20115161D01*
X118416485Y-20067542D01*
X119368866Y-19162780D02*
X119987914Y-19162780D01*
X119654580Y-19543733D01*
X119797438Y-19543733D01*
X119892676Y-19591352D01*
X119940295Y-19638971D01*
X119987914Y-19734209D01*
X119987914Y-19972304D01*
X119940295Y-20067542D01*
X119892676Y-20115161D01*
X119797438Y-20162780D01*
X119511723Y-20162780D01*
X119416485Y-20115161D01*
X119368866Y-20067542D01*
X120606961Y-19162780D02*
X120702200Y-19162780D01*
X120797438Y-19210400D01*
X120845057Y-19258019D01*
X120892676Y-19353257D01*
X120940295Y-19543733D01*
X120940295Y-19781828D01*
X120892676Y-19972304D01*
X120845057Y-20067542D01*
X120797438Y-20115161D01*
X120702200Y-20162780D01*
X120606961Y-20162780D01*
X120511723Y-20115161D01*
X120464104Y-20067542D01*
X120416485Y-19972304D01*
X120368866Y-19781828D01*
X120368866Y-19543733D01*
X120416485Y-19353257D01*
X120464104Y-19258019D01*
X120511723Y-19210400D01*
X120606961Y-19162780D01*
G04 #@! TO.C,RJ1*
X200899780Y-139720580D02*
X200566447Y-139244390D01*
X200328352Y-139720580D02*
X200328352Y-138720580D01*
X200709304Y-138720580D01*
X200804542Y-138768200D01*
X200852161Y-138815819D01*
X200899780Y-138911057D01*
X200899780Y-139053914D01*
X200852161Y-139149152D01*
X200804542Y-139196771D01*
X200709304Y-139244390D01*
X200328352Y-139244390D01*
X201614066Y-138720580D02*
X201614066Y-139434866D01*
X201566447Y-139577723D01*
X201471209Y-139672961D01*
X201328352Y-139720580D01*
X201233114Y-139720580D01*
X202614066Y-139720580D02*
X202042638Y-139720580D01*
X202328352Y-139720580D02*
X202328352Y-138720580D01*
X202233114Y-138863438D01*
X202137876Y-138958676D01*
X202042638Y-139006295D01*
G04 #@! TO.C,RJ0*
X182078380Y-139491980D02*
X181745047Y-139015790D01*
X181506952Y-139491980D02*
X181506952Y-138491980D01*
X181887904Y-138491980D01*
X181983142Y-138539600D01*
X182030761Y-138587219D01*
X182078380Y-138682457D01*
X182078380Y-138825314D01*
X182030761Y-138920552D01*
X181983142Y-138968171D01*
X181887904Y-139015790D01*
X181506952Y-139015790D01*
X182792666Y-138491980D02*
X182792666Y-139206266D01*
X182745047Y-139349123D01*
X182649809Y-139444361D01*
X182506952Y-139491980D01*
X182411714Y-139491980D01*
X183459333Y-138491980D02*
X183554571Y-138491980D01*
X183649809Y-138539600D01*
X183697428Y-138587219D01*
X183745047Y-138682457D01*
X183792666Y-138872933D01*
X183792666Y-139111028D01*
X183745047Y-139301504D01*
X183697428Y-139396742D01*
X183649809Y-139444361D01*
X183554571Y-139491980D01*
X183459333Y-139491980D01*
X183364095Y-139444361D01*
X183316476Y-139396742D01*
X183268857Y-139301504D01*
X183221238Y-139111028D01*
X183221238Y-138872933D01*
X183268857Y-138682457D01*
X183316476Y-138587219D01*
X183364095Y-138539600D01*
X183459333Y-138491980D01*
G04 #@! TO.C,CP0*
X201339533Y-99264742D02*
X201291914Y-99312361D01*
X201149057Y-99359980D01*
X201053819Y-99359980D01*
X200910961Y-99312361D01*
X200815723Y-99217123D01*
X200768104Y-99121885D01*
X200720485Y-98931409D01*
X200720485Y-98788552D01*
X200768104Y-98598076D01*
X200815723Y-98502838D01*
X200910961Y-98407600D01*
X201053819Y-98359980D01*
X201149057Y-98359980D01*
X201291914Y-98407600D01*
X201339533Y-98455219D01*
X201768104Y-99359980D02*
X201768104Y-98359980D01*
X202149057Y-98359980D01*
X202244295Y-98407600D01*
X202291914Y-98455219D01*
X202339533Y-98550457D01*
X202339533Y-98693314D01*
X202291914Y-98788552D01*
X202244295Y-98836171D01*
X202149057Y-98883790D01*
X201768104Y-98883790D01*
X202958580Y-98359980D02*
X203053819Y-98359980D01*
X203149057Y-98407600D01*
X203196676Y-98455219D01*
X203244295Y-98550457D01*
X203291914Y-98740933D01*
X203291914Y-98979028D01*
X203244295Y-99169504D01*
X203196676Y-99264742D01*
X203149057Y-99312361D01*
X203053819Y-99359980D01*
X202958580Y-99359980D01*
X202863342Y-99312361D01*
X202815723Y-99264742D01*
X202768104Y-99169504D01*
X202720485Y-98979028D01*
X202720485Y-98740933D01*
X202768104Y-98550457D01*
X202815723Y-98455219D01*
X202863342Y-98407600D01*
X202958580Y-98359980D01*
G04 #@! TO.C,C0.1nF0*
X198548904Y-135561342D02*
X198501285Y-135608961D01*
X198358428Y-135656580D01*
X198263190Y-135656580D01*
X198120333Y-135608961D01*
X198025095Y-135513723D01*
X197977476Y-135418485D01*
X197929857Y-135228009D01*
X197929857Y-135085152D01*
X197977476Y-134894676D01*
X198025095Y-134799438D01*
X198120333Y-134704200D01*
X198263190Y-134656580D01*
X198358428Y-134656580D01*
X198501285Y-134704200D01*
X198548904Y-134751819D01*
X199167952Y-134656580D02*
X199263190Y-134656580D01*
X199358428Y-134704200D01*
X199406047Y-134751819D01*
X199453666Y-134847057D01*
X199501285Y-135037533D01*
X199501285Y-135275628D01*
X199453666Y-135466104D01*
X199406047Y-135561342D01*
X199358428Y-135608961D01*
X199263190Y-135656580D01*
X199167952Y-135656580D01*
X199072714Y-135608961D01*
X199025095Y-135561342D01*
X198977476Y-135466104D01*
X198929857Y-135275628D01*
X198929857Y-135037533D01*
X198977476Y-134847057D01*
X199025095Y-134751819D01*
X199072714Y-134704200D01*
X199167952Y-134656580D01*
X199929857Y-135561342D02*
X199977476Y-135608961D01*
X199929857Y-135656580D01*
X199882238Y-135608961D01*
X199929857Y-135561342D01*
X199929857Y-135656580D01*
X200929857Y-135656580D02*
X200358428Y-135656580D01*
X200644142Y-135656580D02*
X200644142Y-134656580D01*
X200548904Y-134799438D01*
X200453666Y-134894676D01*
X200358428Y-134942295D01*
X201358428Y-134989914D02*
X201358428Y-135656580D01*
X201358428Y-135085152D02*
X201406047Y-135037533D01*
X201501285Y-134989914D01*
X201644142Y-134989914D01*
X201739380Y-135037533D01*
X201787000Y-135132771D01*
X201787000Y-135656580D01*
X202596523Y-135132771D02*
X202263190Y-135132771D01*
X202263190Y-135656580D02*
X202263190Y-134656580D01*
X202739380Y-134656580D01*
X203310809Y-134656580D02*
X203406047Y-134656580D01*
X203501285Y-134704200D01*
X203548904Y-134751819D01*
X203596523Y-134847057D01*
X203644142Y-135037533D01*
X203644142Y-135275628D01*
X203596523Y-135466104D01*
X203548904Y-135561342D01*
X203501285Y-135608961D01*
X203406047Y-135656580D01*
X203310809Y-135656580D01*
X203215571Y-135608961D01*
X203167952Y-135561342D01*
X203120333Y-135466104D01*
X203072714Y-135275628D01*
X203072714Y-135037533D01*
X203120333Y-134847057D01*
X203167952Y-134751819D01*
X203215571Y-134704200D01*
X203310809Y-134656580D01*
G04 #@! TO.C,+5V_IN1*
X200295238Y-94102228D02*
X201057142Y-94102228D01*
X200676190Y-94483180D02*
X200676190Y-93721276D01*
X202009523Y-93483180D02*
X201533333Y-93483180D01*
X201485714Y-93959371D01*
X201533333Y-93911752D01*
X201628571Y-93864133D01*
X201866666Y-93864133D01*
X201961904Y-93911752D01*
X202009523Y-93959371D01*
X202057142Y-94054609D01*
X202057142Y-94292704D01*
X202009523Y-94387942D01*
X201961904Y-94435561D01*
X201866666Y-94483180D01*
X201628571Y-94483180D01*
X201533333Y-94435561D01*
X201485714Y-94387942D01*
X202342857Y-93483180D02*
X202676190Y-94483180D01*
X203009523Y-93483180D01*
X203104761Y-94578419D02*
X203866666Y-94578419D01*
X204104761Y-94483180D02*
X204104761Y-93483180D01*
X204580952Y-94483180D02*
X204580952Y-93483180D01*
X205152380Y-94483180D01*
X205152380Y-93483180D01*
X206152380Y-94483180D02*
X205580952Y-94483180D01*
X205866666Y-94483180D02*
X205866666Y-93483180D01*
X205771428Y-93626038D01*
X205676190Y-93721276D01*
X205580952Y-93768895D01*
G04 #@! TO.C,GND1*
X203079504Y-126093600D02*
X202984266Y-126045980D01*
X202841409Y-126045980D01*
X202698552Y-126093600D01*
X202603314Y-126188838D01*
X202555695Y-126284076D01*
X202508076Y-126474552D01*
X202508076Y-126617409D01*
X202555695Y-126807885D01*
X202603314Y-126903123D01*
X202698552Y-126998361D01*
X202841409Y-127045980D01*
X202936647Y-127045980D01*
X203079504Y-126998361D01*
X203127123Y-126950742D01*
X203127123Y-126617409D01*
X202936647Y-126617409D01*
X203555695Y-127045980D02*
X203555695Y-126045980D01*
X204127123Y-127045980D01*
X204127123Y-126045980D01*
X204603314Y-127045980D02*
X204603314Y-126045980D01*
X204841409Y-126045980D01*
X204984266Y-126093600D01*
X205079504Y-126188838D01*
X205127123Y-126284076D01*
X205174742Y-126474552D01*
X205174742Y-126617409D01*
X205127123Y-126807885D01*
X205079504Y-126903123D01*
X204984266Y-126998361D01*
X204841409Y-127045980D01*
X204603314Y-127045980D01*
X206127123Y-127045980D02*
X205555695Y-127045980D01*
X205841409Y-127045980D02*
X205841409Y-126045980D01*
X205746171Y-126188838D01*
X205650933Y-126284076D01*
X205555695Y-126331695D01*
G04 #@! TO.C,RS-485*
X195423114Y-131846580D02*
X195089780Y-131370390D01*
X194851685Y-131846580D02*
X194851685Y-130846580D01*
X195232638Y-130846580D01*
X195327876Y-130894200D01*
X195375495Y-130941819D01*
X195423114Y-131037057D01*
X195423114Y-131179914D01*
X195375495Y-131275152D01*
X195327876Y-131322771D01*
X195232638Y-131370390D01*
X194851685Y-131370390D01*
X195804066Y-131798961D02*
X195946923Y-131846580D01*
X196185019Y-131846580D01*
X196280257Y-131798961D01*
X196327876Y-131751342D01*
X196375495Y-131656104D01*
X196375495Y-131560866D01*
X196327876Y-131465628D01*
X196280257Y-131418009D01*
X196185019Y-131370390D01*
X195994542Y-131322771D01*
X195899304Y-131275152D01*
X195851685Y-131227533D01*
X195804066Y-131132295D01*
X195804066Y-131037057D01*
X195851685Y-130941819D01*
X195899304Y-130894200D01*
X195994542Y-130846580D01*
X196232638Y-130846580D01*
X196375495Y-130894200D01*
X196804066Y-131465628D02*
X197565971Y-131465628D01*
X198470733Y-131179914D02*
X198470733Y-131846580D01*
X198232638Y-130798961D02*
X197994542Y-131513247D01*
X198613590Y-131513247D01*
X199137400Y-131275152D02*
X199042161Y-131227533D01*
X198994542Y-131179914D01*
X198946923Y-131084676D01*
X198946923Y-131037057D01*
X198994542Y-130941819D01*
X199042161Y-130894200D01*
X199137400Y-130846580D01*
X199327876Y-130846580D01*
X199423114Y-130894200D01*
X199470733Y-130941819D01*
X199518352Y-131037057D01*
X199518352Y-131084676D01*
X199470733Y-131179914D01*
X199423114Y-131227533D01*
X199327876Y-131275152D01*
X199137400Y-131275152D01*
X199042161Y-131322771D01*
X198994542Y-131370390D01*
X198946923Y-131465628D01*
X198946923Y-131656104D01*
X198994542Y-131751342D01*
X199042161Y-131798961D01*
X199137400Y-131846580D01*
X199327876Y-131846580D01*
X199423114Y-131798961D01*
X199470733Y-131751342D01*
X199518352Y-131656104D01*
X199518352Y-131465628D01*
X199470733Y-131370390D01*
X199423114Y-131322771D01*
X199327876Y-131275152D01*
X200423114Y-130846580D02*
X199946923Y-130846580D01*
X199899304Y-131322771D01*
X199946923Y-131275152D01*
X200042161Y-131227533D01*
X200280257Y-131227533D01*
X200375495Y-131275152D01*
X200423114Y-131322771D01*
X200470733Y-131418009D01*
X200470733Y-131656104D01*
X200423114Y-131751342D01*
X200375495Y-131798961D01*
X200280257Y-131846580D01*
X200042161Y-131846580D01*
X199946923Y-131798961D01*
X199899304Y-131751342D01*
G04 #@! TO.C,Prt_IC1*
X178573419Y-135707380D02*
X178573419Y-134707380D01*
X178954371Y-134707380D01*
X179049609Y-134755000D01*
X179097228Y-134802619D01*
X179144847Y-134897857D01*
X179144847Y-135040714D01*
X179097228Y-135135952D01*
X179049609Y-135183571D01*
X178954371Y-135231190D01*
X178573419Y-135231190D01*
X179573419Y-135707380D02*
X179573419Y-135040714D01*
X179573419Y-135231190D02*
X179621038Y-135135952D01*
X179668657Y-135088333D01*
X179763895Y-135040714D01*
X179859133Y-135040714D01*
X180049609Y-135040714D02*
X180430561Y-135040714D01*
X180192466Y-134707380D02*
X180192466Y-135564523D01*
X180240085Y-135659761D01*
X180335323Y-135707380D01*
X180430561Y-135707380D01*
X180525800Y-135802619D02*
X181287704Y-135802619D01*
X181525800Y-135707380D02*
X181525800Y-134707380D01*
X182573419Y-135612142D02*
X182525800Y-135659761D01*
X182382942Y-135707380D01*
X182287704Y-135707380D01*
X182144847Y-135659761D01*
X182049609Y-135564523D01*
X182001990Y-135469285D01*
X181954371Y-135278809D01*
X181954371Y-135135952D01*
X182001990Y-134945476D01*
X182049609Y-134850238D01*
X182144847Y-134755000D01*
X182287704Y-134707380D01*
X182382942Y-134707380D01*
X182525800Y-134755000D01*
X182573419Y-134802619D01*
X183525800Y-135707380D02*
X182954371Y-135707380D01*
X183240085Y-135707380D02*
X183240085Y-134707380D01*
X183144847Y-134850238D01*
X183049609Y-134945476D01*
X182954371Y-134993095D01*
G04 #@! TD*
M02*
