G04 #@! TF.GenerationSoftware,KiCad,Pcbnew,5.1.5-52549c5~84~ubuntu18.04.1*
G04 #@! TF.CreationDate,2020-02-12T19:36:06-05:00*
G04 #@! TF.ProjectId,solenoid_board,736f6c65-6e6f-4696-945f-626f6172642e,rev?*
G04 #@! TF.SameCoordinates,Original*
G04 #@! TF.FileFunction,Copper,L2,Bot*
G04 #@! TF.FilePolarity,Positive*
%FSLAX46Y46*%
G04 Gerber Fmt 4.6, Leading zero omitted, Abs format (unit mm)*
G04 Created by KiCad (PCBNEW 5.1.5-52549c5~84~ubuntu18.04.1) date 2020-02-12 19:36:06*
%MOMM*%
%LPD*%
G04 APERTURE LIST*
G04 #@! TA.AperFunction,Profile*
%ADD10C,0.120000*%
G04 #@! TD*
G04 #@! TA.AperFunction,ComponentPad*
%ADD11O,1.600000X1.600000*%
G04 #@! TD*
G04 #@! TA.AperFunction,ComponentPad*
%ADD12C,1.600000*%
G04 #@! TD*
G04 #@! TA.AperFunction,ComponentPad*
%ADD13R,1.524000X2.524000*%
G04 #@! TD*
G04 #@! TA.AperFunction,ComponentPad*
%ADD14O,1.524000X2.524000*%
G04 #@! TD*
G04 #@! TA.AperFunction,ComponentPad*
%ADD15R,1.500000X1.500000*%
G04 #@! TD*
G04 #@! TA.AperFunction,ComponentPad*
%ADD16C,1.500000*%
G04 #@! TD*
G04 #@! TA.AperFunction,ComponentPad*
%ADD17R,1.600000X1.600000*%
G04 #@! TD*
G04 #@! TA.AperFunction,ComponentPad*
%ADD18R,1.200000X1.200000*%
G04 #@! TD*
G04 #@! TA.AperFunction,ComponentPad*
%ADD19C,1.200000*%
G04 #@! TD*
G04 #@! TA.AperFunction,ComponentPad*
%ADD20R,3.000000X3.000000*%
G04 #@! TD*
G04 #@! TA.AperFunction,ComponentPad*
%ADD21C,3.000000*%
G04 #@! TD*
G04 #@! TA.AperFunction,ComponentPad*
%ADD22R,1.700000X1.700000*%
G04 #@! TD*
G04 #@! TA.AperFunction,ComponentPad*
%ADD23O,1.700000X1.700000*%
G04 #@! TD*
G04 #@! TA.AperFunction,ViaPad*
%ADD24C,0.800000*%
G04 #@! TD*
G04 #@! TA.AperFunction,Conductor*
%ADD25C,0.250000*%
G04 #@! TD*
G04 #@! TA.AperFunction,Conductor*
%ADD26C,0.750000*%
G04 #@! TD*
G04 #@! TA.AperFunction,Conductor*
%ADD27C,0.254000*%
G04 #@! TD*
G04 APERTURE END LIST*
D10*
X55000000Y-160000000D02*
X225000000Y-160000000D01*
X55000000Y-15000000D02*
X55000000Y-160000000D01*
X225000000Y-15000000D02*
X55000000Y-15000000D01*
X225000000Y-160000000D02*
X225000000Y-15000000D01*
D11*
G04 #@! TO.P,R11,2*
G04 #@! TO.N,Net-(Prt_IC1-Pad1)*
X168122600Y-131038600D03*
D12*
G04 #@! TO.P,R11,1*
G04 #@! TO.N,/RJ45_5*
X168122600Y-151358600D03*
G04 #@! TD*
D13*
G04 #@! TO.P,7Seg_3,1*
G04 #@! TO.N,/A4*
X157764200Y-53174400D03*
D14*
G04 #@! TO.P,7Seg_3,2*
G04 #@! TO.N,/A5*
X155224200Y-53174400D03*
G04 #@! TO.P,7Seg_3,3*
G04 #@! TO.N,/Third_Display*
X152684200Y-53174400D03*
G04 #@! TO.P,7Seg_3,4*
G04 #@! TO.N,/C*
X150144200Y-53174400D03*
G04 #@! TO.P,7Seg_3,5*
G04 #@! TO.N,/DP*
X147604200Y-53174400D03*
G04 #@! TO.P,7Seg_3,6*
G04 #@! TO.N,/A3*
X147604200Y-37934400D03*
G04 #@! TO.P,7Seg_3,7*
G04 #@! TO.N,/A*
X150144200Y-37934400D03*
G04 #@! TO.P,7Seg_3,8*
G04 #@! TO.N,/Third_Display*
X152684200Y-37934400D03*
G04 #@! TO.P,7Seg_3,9*
G04 #@! TO.N,/A1*
X155224200Y-37934400D03*
G04 #@! TO.P,7Seg_3,10*
G04 #@! TO.N,/A0*
X157764200Y-37934400D03*
G04 #@! TD*
D11*
G04 #@! TO.P,R10,2*
G04 #@! TO.N,Net-(Prt_IC1-Pad2)*
X174117000Y-132918200D03*
D12*
G04 #@! TO.P,R10,1*
G04 #@! TO.N,/RJ45_4*
X174117000Y-153238200D03*
G04 #@! TD*
D11*
G04 #@! TO.P,R338,2*
G04 #@! TO.N,/SDA*
X172770800Y-83566000D03*
D12*
G04 #@! TO.P,R338,1*
G04 #@! TO.N,/Ninth_Display*
X152450800Y-83566000D03*
G04 #@! TD*
D11*
G04 #@! TO.P,R337,2*
G04 #@! TO.N,/SCL*
X158013400Y-78917800D03*
D12*
G04 #@! TO.P,R337,1*
G04 #@! TO.N,/Eigth_Display*
X137693400Y-78917800D03*
G04 #@! TD*
D11*
G04 #@! TO.P,R336,2*
G04 #@! TO.N,/D5*
X142824200Y-74777600D03*
D12*
G04 #@! TO.P,R336,1*
G04 #@! TO.N,/Seventh_Display*
X122504200Y-74777600D03*
G04 #@! TD*
D11*
G04 #@! TO.P,R335,2*
G04 #@! TO.N,/D6*
X127431800Y-70434200D03*
D12*
G04 #@! TO.P,R335,1*
G04 #@! TO.N,/Sixth_Display*
X107111800Y-70434200D03*
G04 #@! TD*
D11*
G04 #@! TO.P,R334,2*
G04 #@! TO.N,/D9*
X112445800Y-66014600D03*
D12*
G04 #@! TO.P,R334,1*
G04 #@! TO.N,/Fifth_Display*
X92125800Y-66014600D03*
G04 #@! TD*
D11*
G04 #@! TO.P,R333,2*
G04 #@! TO.N,/D10*
X97485200Y-61544200D03*
D12*
G04 #@! TO.P,R333,1*
G04 #@! TO.N,/Fourth_Display*
X77165200Y-61544200D03*
G04 #@! TD*
D11*
G04 #@! TO.P,R332,2*
G04 #@! TO.N,/D11*
X173202600Y-29997400D03*
D12*
G04 #@! TO.P,R332,1*
G04 #@! TO.N,/Third_Display*
X152882600Y-29997400D03*
G04 #@! TD*
G04 #@! TO.P,R331,1*
G04 #@! TO.N,/Second_Display*
X137795000Y-24790400D03*
D11*
G04 #@! TO.P,R331,2*
G04 #@! TO.N,/D12*
X158115000Y-24790400D03*
G04 #@! TD*
D12*
G04 #@! TO.P,R330,1*
G04 #@! TO.N,/First_Display*
X122885200Y-19608800D03*
D11*
G04 #@! TO.P,R330,2*
G04 #@! TO.N,/D13*
X143205200Y-19608800D03*
G04 #@! TD*
D13*
G04 #@! TO.P,7Seg_9,1*
G04 #@! TO.N,/A4*
X157618600Y-108721600D03*
D14*
G04 #@! TO.P,7Seg_9,2*
G04 #@! TO.N,/A5*
X155078600Y-108721600D03*
G04 #@! TO.P,7Seg_9,3*
G04 #@! TO.N,/Ninth_Display*
X152538600Y-108721600D03*
G04 #@! TO.P,7Seg_9,4*
G04 #@! TO.N,/C*
X149998600Y-108721600D03*
G04 #@! TO.P,7Seg_9,5*
G04 #@! TO.N,/DP*
X147458600Y-108721600D03*
G04 #@! TO.P,7Seg_9,6*
G04 #@! TO.N,/A3*
X147458600Y-93481600D03*
G04 #@! TO.P,7Seg_9,7*
G04 #@! TO.N,/A*
X149998600Y-93481600D03*
G04 #@! TO.P,7Seg_9,8*
G04 #@! TO.N,/Ninth_Display*
X152538600Y-93481600D03*
G04 #@! TO.P,7Seg_9,9*
G04 #@! TO.N,/A1*
X155078600Y-93481600D03*
G04 #@! TO.P,7Seg_9,10*
G04 #@! TO.N,/A0*
X157618600Y-93481600D03*
G04 #@! TD*
D13*
G04 #@! TO.P,7Seg_8,1*
G04 #@! TO.N,/A4*
X142618600Y-108721600D03*
D14*
G04 #@! TO.P,7Seg_8,2*
G04 #@! TO.N,/A5*
X140078600Y-108721600D03*
G04 #@! TO.P,7Seg_8,3*
G04 #@! TO.N,/Eigth_Display*
X137538600Y-108721600D03*
G04 #@! TO.P,7Seg_8,4*
G04 #@! TO.N,/C*
X134998600Y-108721600D03*
G04 #@! TO.P,7Seg_8,5*
G04 #@! TO.N,/DP*
X132458600Y-108721600D03*
G04 #@! TO.P,7Seg_8,6*
G04 #@! TO.N,/A3*
X132458600Y-93481600D03*
G04 #@! TO.P,7Seg_8,7*
G04 #@! TO.N,/A*
X134998600Y-93481600D03*
G04 #@! TO.P,7Seg_8,8*
G04 #@! TO.N,/Eigth_Display*
X137538600Y-93481600D03*
G04 #@! TO.P,7Seg_8,9*
G04 #@! TO.N,/A1*
X140078600Y-93481600D03*
G04 #@! TO.P,7Seg_8,10*
G04 #@! TO.N,/A0*
X142618600Y-93481600D03*
G04 #@! TD*
D13*
G04 #@! TO.P,7Seg_7,1*
G04 #@! TO.N,/A4*
X127618600Y-108721600D03*
D14*
G04 #@! TO.P,7Seg_7,2*
G04 #@! TO.N,/A5*
X125078600Y-108721600D03*
G04 #@! TO.P,7Seg_7,3*
G04 #@! TO.N,/Seventh_Display*
X122538600Y-108721600D03*
G04 #@! TO.P,7Seg_7,4*
G04 #@! TO.N,/C*
X119998600Y-108721600D03*
G04 #@! TO.P,7Seg_7,5*
G04 #@! TO.N,/DP*
X117458600Y-108721600D03*
G04 #@! TO.P,7Seg_7,6*
G04 #@! TO.N,/A3*
X117458600Y-93481600D03*
G04 #@! TO.P,7Seg_7,7*
G04 #@! TO.N,/A*
X119998600Y-93481600D03*
G04 #@! TO.P,7Seg_7,8*
G04 #@! TO.N,/Seventh_Display*
X122538600Y-93481600D03*
G04 #@! TO.P,7Seg_7,9*
G04 #@! TO.N,/A1*
X125078600Y-93481600D03*
G04 #@! TO.P,7Seg_7,10*
G04 #@! TO.N,/A0*
X127618600Y-93481600D03*
G04 #@! TD*
D13*
G04 #@! TO.P,7Seg_6,1*
G04 #@! TO.N,/A4*
X112238600Y-108673400D03*
D14*
G04 #@! TO.P,7Seg_6,2*
G04 #@! TO.N,/A5*
X109698600Y-108673400D03*
G04 #@! TO.P,7Seg_6,3*
G04 #@! TO.N,/Sixth_Display*
X107158600Y-108673400D03*
G04 #@! TO.P,7Seg_6,4*
G04 #@! TO.N,/C*
X104618600Y-108673400D03*
G04 #@! TO.P,7Seg_6,5*
G04 #@! TO.N,/DP*
X102078600Y-108673400D03*
G04 #@! TO.P,7Seg_6,6*
G04 #@! TO.N,/A3*
X102078600Y-93433400D03*
G04 #@! TO.P,7Seg_6,7*
G04 #@! TO.N,/A*
X104618600Y-93433400D03*
G04 #@! TO.P,7Seg_6,8*
G04 #@! TO.N,/Sixth_Display*
X107158600Y-93433400D03*
G04 #@! TO.P,7Seg_6,9*
G04 #@! TO.N,/A1*
X109698600Y-93433400D03*
G04 #@! TO.P,7Seg_6,10*
G04 #@! TO.N,/A0*
X112238600Y-93433400D03*
G04 #@! TD*
D13*
G04 #@! TO.P,7Seg_5,1*
G04 #@! TO.N,/A4*
X97238600Y-108673400D03*
D14*
G04 #@! TO.P,7Seg_5,2*
G04 #@! TO.N,/A5*
X94698600Y-108673400D03*
G04 #@! TO.P,7Seg_5,3*
G04 #@! TO.N,/Fifth_Display*
X92158600Y-108673400D03*
G04 #@! TO.P,7Seg_5,4*
G04 #@! TO.N,/C*
X89618600Y-108673400D03*
G04 #@! TO.P,7Seg_5,5*
G04 #@! TO.N,/DP*
X87078600Y-108673400D03*
G04 #@! TO.P,7Seg_5,6*
G04 #@! TO.N,/A3*
X87078600Y-93433400D03*
G04 #@! TO.P,7Seg_5,7*
G04 #@! TO.N,/A*
X89618600Y-93433400D03*
G04 #@! TO.P,7Seg_5,8*
G04 #@! TO.N,/Fifth_Display*
X92158600Y-93433400D03*
G04 #@! TO.P,7Seg_5,9*
G04 #@! TO.N,/A1*
X94698600Y-93433400D03*
G04 #@! TO.P,7Seg_5,10*
G04 #@! TO.N,/A0*
X97238600Y-93433400D03*
G04 #@! TD*
D13*
G04 #@! TO.P,7Seg_4,1*
G04 #@! TO.N,/A4*
X82238600Y-108673400D03*
D14*
G04 #@! TO.P,7Seg_4,2*
G04 #@! TO.N,/A5*
X79698600Y-108673400D03*
G04 #@! TO.P,7Seg_4,3*
G04 #@! TO.N,/Fourth_Display*
X77158600Y-108673400D03*
G04 #@! TO.P,7Seg_4,4*
G04 #@! TO.N,/C*
X74618600Y-108673400D03*
G04 #@! TO.P,7Seg_4,5*
G04 #@! TO.N,/DP*
X72078600Y-108673400D03*
G04 #@! TO.P,7Seg_4,6*
G04 #@! TO.N,/A3*
X72078600Y-93433400D03*
G04 #@! TO.P,7Seg_4,7*
G04 #@! TO.N,/A*
X74618600Y-93433400D03*
G04 #@! TO.P,7Seg_4,8*
G04 #@! TO.N,/Fourth_Display*
X77158600Y-93433400D03*
G04 #@! TO.P,7Seg_4,9*
G04 #@! TO.N,/A1*
X79698600Y-93433400D03*
G04 #@! TO.P,7Seg_4,10*
G04 #@! TO.N,/A0*
X82238600Y-93433400D03*
G04 #@! TD*
D13*
G04 #@! TO.P,7Seg_2,1*
G04 #@! TO.N,/A4*
X142764200Y-53174400D03*
D14*
G04 #@! TO.P,7Seg_2,2*
G04 #@! TO.N,/A5*
X140224200Y-53174400D03*
G04 #@! TO.P,7Seg_2,3*
G04 #@! TO.N,/Second_Display*
X137684200Y-53174400D03*
G04 #@! TO.P,7Seg_2,4*
G04 #@! TO.N,/C*
X135144200Y-53174400D03*
G04 #@! TO.P,7Seg_2,5*
G04 #@! TO.N,/DP*
X132604200Y-53174400D03*
G04 #@! TO.P,7Seg_2,6*
G04 #@! TO.N,/A3*
X132604200Y-37934400D03*
G04 #@! TO.P,7Seg_2,7*
G04 #@! TO.N,/A*
X135144200Y-37934400D03*
G04 #@! TO.P,7Seg_2,8*
G04 #@! TO.N,/Second_Display*
X137684200Y-37934400D03*
G04 #@! TO.P,7Seg_2,9*
G04 #@! TO.N,/A1*
X140224200Y-37934400D03*
G04 #@! TO.P,7Seg_2,10*
G04 #@! TO.N,/A0*
X142764200Y-37934400D03*
G04 #@! TD*
D13*
G04 #@! TO.P,7Seg_1,1*
G04 #@! TO.N,/A4*
X127764200Y-53174400D03*
D14*
G04 #@! TO.P,7Seg_1,2*
G04 #@! TO.N,/A5*
X125224200Y-53174400D03*
G04 #@! TO.P,7Seg_1,3*
G04 #@! TO.N,/First_Display*
X122684200Y-53174400D03*
G04 #@! TO.P,7Seg_1,4*
G04 #@! TO.N,/C*
X120144200Y-53174400D03*
G04 #@! TO.P,7Seg_1,5*
G04 #@! TO.N,/DP*
X117604200Y-53174400D03*
G04 #@! TO.P,7Seg_1,6*
G04 #@! TO.N,/A3*
X117604200Y-37934400D03*
G04 #@! TO.P,7Seg_1,7*
G04 #@! TO.N,/A*
X120144200Y-37934400D03*
G04 #@! TO.P,7Seg_1,8*
G04 #@! TO.N,/First_Display*
X122684200Y-37934400D03*
G04 #@! TO.P,7Seg_1,9*
G04 #@! TO.N,/A1*
X125224200Y-37934400D03*
G04 #@! TO.P,7Seg_1,10*
G04 #@! TO.N,/A0*
X127764200Y-37934400D03*
G04 #@! TD*
D15*
G04 #@! TO.P,RJ1,1*
G04 #@! TO.N,N/C*
X201803000Y-144932400D03*
D16*
G04 #@! TO.P,RJ1,2*
X203073000Y-142392400D03*
G04 #@! TO.P,RJ1,3*
X204343000Y-144932400D03*
G04 #@! TO.P,RJ1,4*
G04 #@! TO.N,/RJ45_4*
X205613000Y-142392400D03*
G04 #@! TO.P,RJ1,5*
G04 #@! TO.N,/RJ45_5*
X206883000Y-144932400D03*
G04 #@! TO.P,RJ1,6*
G04 #@! TO.N,N/C*
X208153000Y-142392400D03*
G04 #@! TO.P,RJ1,7*
X209423000Y-144932400D03*
G04 #@! TO.P,RJ1,8*
X210693000Y-142392400D03*
G04 #@! TD*
D15*
G04 #@! TO.P,RJ0,1*
G04 #@! TO.N,N/C*
X180594000Y-144932400D03*
D16*
G04 #@! TO.P,RJ0,2*
X181864000Y-142392400D03*
G04 #@! TO.P,RJ0,3*
X183134000Y-144932400D03*
G04 #@! TO.P,RJ0,4*
G04 #@! TO.N,/RJ45_4*
X184404000Y-142392400D03*
G04 #@! TO.P,RJ0,5*
G04 #@! TO.N,/RJ45_5*
X185674000Y-144932400D03*
G04 #@! TO.P,RJ0,6*
G04 #@! TO.N,N/C*
X186944000Y-142392400D03*
G04 #@! TO.P,RJ0,7*
X188214000Y-144932400D03*
G04 #@! TO.P,RJ0,8*
X189484000Y-142392400D03*
G04 #@! TD*
D17*
G04 #@! TO.P,CP0,1*
G04 #@! TO.N,+5V*
X200710800Y-102768400D03*
D12*
G04 #@! TO.P,CP0,2*
G04 #@! TO.N,GND*
X203210800Y-102768400D03*
G04 #@! TD*
D18*
G04 #@! TO.P,C0.1nF0,1*
G04 #@! TO.N,GND*
X195961000Y-135077200D03*
D19*
G04 #@! TO.P,C0.1nF0,2*
G04 #@! TO.N,+3V3*
X193961000Y-135077200D03*
G04 #@! TD*
D20*
G04 #@! TO.P,+5V_IN1,1*
G04 #@! TO.N,GND*
X205740000Y-88950800D03*
D21*
G04 #@! TO.P,+5V_IN1,2*
G04 #@! TO.N,+5V*
X200660000Y-88950800D03*
G04 #@! TD*
D22*
G04 #@! TO.P,GND1,1*
G04 #@! TO.N,GND*
X204520800Y-123317000D03*
G04 #@! TD*
G04 #@! TO.P,J3,1*
G04 #@! TO.N,N/C*
X197104000Y-97739200D03*
D23*
G04 #@! TO.P,J3,2*
X197104000Y-100279200D03*
G04 #@! TO.P,J3,3*
G04 #@! TO.N,+5V*
X197104000Y-102819200D03*
G04 #@! TO.P,J3,4*
G04 #@! TO.N,/D13*
X197104000Y-105359200D03*
G04 #@! TO.P,J3,5*
G04 #@! TO.N,/D12*
X197104000Y-107899200D03*
G04 #@! TO.P,J3,6*
G04 #@! TO.N,/D11*
X197104000Y-110439200D03*
G04 #@! TO.P,J3,7*
G04 #@! TO.N,/D10*
X197104000Y-112979200D03*
G04 #@! TO.P,J3,8*
G04 #@! TO.N,/D9*
X197104000Y-115519200D03*
G04 #@! TO.P,J3,9*
G04 #@! TO.N,/D6*
X197104000Y-118059200D03*
G04 #@! TO.P,J3,10*
G04 #@! TO.N,/D5*
X197104000Y-120599200D03*
G04 #@! TO.P,J3,11*
G04 #@! TO.N,/SCL*
X197104000Y-123139200D03*
G04 #@! TO.P,J3,12*
G04 #@! TO.N,/SDA*
X197104000Y-125679200D03*
G04 #@! TD*
D22*
G04 #@! TO.P,J2,1*
G04 #@! TO.N,N/C*
X176784000Y-87579200D03*
D23*
G04 #@! TO.P,J2,2*
G04 #@! TO.N,+3V3*
X176784000Y-90119200D03*
G04 #@! TO.P,J2,3*
G04 #@! TO.N,N/C*
X176784000Y-92659200D03*
G04 #@! TO.P,J2,4*
G04 #@! TO.N,GND*
X176784000Y-95199200D03*
G04 #@! TO.P,J2,5*
G04 #@! TO.N,/A0*
X176784000Y-97739200D03*
G04 #@! TO.P,J2,6*
G04 #@! TO.N,/A1*
X176784000Y-100279200D03*
G04 #@! TO.P,J2,7*
G04 #@! TO.N,/A*
X176784000Y-102819200D03*
G04 #@! TO.P,J2,8*
G04 #@! TO.N,/A3*
X176784000Y-105359200D03*
G04 #@! TO.P,J2,9*
G04 #@! TO.N,/A4*
X176784000Y-107899200D03*
G04 #@! TO.P,J2,10*
G04 #@! TO.N,/A5*
X176784000Y-110439200D03*
G04 #@! TO.P,J2,11*
G04 #@! TO.N,/C*
X176784000Y-112979200D03*
G04 #@! TO.P,J2,12*
G04 #@! TO.N,/DP*
X176784000Y-115519200D03*
G04 #@! TO.P,J2,13*
G04 #@! TO.N,/MISO*
X176784000Y-118059200D03*
G04 #@! TO.P,J2,14*
G04 #@! TO.N,/RX0*
X176784000Y-120599200D03*
G04 #@! TO.P,J2,15*
G04 #@! TO.N,/TX1*
X176784000Y-123139200D03*
G04 #@! TO.P,J2,16*
G04 #@! TO.N,GND*
X176784000Y-125679200D03*
G04 #@! TD*
D24*
G04 #@! TO.N,GND*
X184353200Y-132435600D03*
G04 #@! TO.N,/RX0*
X184708800Y-126949200D03*
G04 #@! TO.N,/A4*
X127787400Y-59537600D03*
X142773400Y-59563000D03*
X157759400Y-59537600D03*
G04 #@! TO.N,/RJ45_5*
X190398400Y-137642600D03*
G04 #@! TO.N,/A5*
X155067000Y-113995200D03*
X140078600Y-113972200D03*
X79698600Y-113836200D03*
X94716600Y-113868200D03*
X109698600Y-113915000D03*
X125078600Y-113910000D03*
X125224200Y-57126800D03*
X140224200Y-57006800D03*
X155224200Y-56926200D03*
G04 #@! TO.N,/A3*
X147458600Y-102502800D03*
X132486400Y-102514400D03*
X117475000Y-102539800D03*
X102078600Y-102713600D03*
X87078600Y-102684800D03*
X72059800Y-102692200D03*
G04 #@! TO.N,/A1*
X155067000Y-97866200D03*
X140081000Y-97917000D03*
X124993400Y-97891600D03*
X109753400Y-97866200D03*
X94665800Y-97840800D03*
X79698600Y-97732600D03*
X155224200Y-42778400D03*
X140224200Y-42739000D03*
X125224200Y-42898400D03*
X118133200Y-42898400D03*
G04 #@! TO.N,/DP*
X147458600Y-119216000D03*
X132458600Y-119179200D03*
X117458600Y-118990000D03*
X102108000Y-119151400D03*
X87078600Y-119093200D03*
X72078600Y-119094000D03*
G04 #@! TO.N,/A*
X149961600Y-100203000D03*
X134998600Y-100002200D03*
X119989600Y-100076000D03*
X104618600Y-99927600D03*
X89618600Y-99854800D03*
X74618600Y-99828600D03*
G04 #@! TO.N,/C*
X149998600Y-116572200D03*
X134998600Y-116563000D03*
X119998600Y-116526200D03*
X104618600Y-116513800D03*
X89618600Y-116517200D03*
X74618600Y-116503200D03*
G04 #@! TO.N,/A0*
X157764200Y-45420000D03*
X142748000Y-45466000D03*
X127764200Y-45413000D03*
X118338600Y-45415200D03*
G04 #@! TD*
D25*
G04 #@! TO.N,/RX0*
X177633999Y-121449199D02*
X176784000Y-120599200D01*
X179781200Y-123596400D02*
X177633999Y-121449199D01*
X181356000Y-123596400D02*
X179781200Y-123596400D01*
X184708800Y-126949200D02*
X181356000Y-123596400D01*
G04 #@! TO.N,/A4*
X157618600Y-110233600D02*
X156320800Y-111531400D01*
X157618600Y-108721600D02*
X157618600Y-110233600D01*
X142618600Y-110233600D02*
X142618600Y-108721600D01*
X143916400Y-111531400D02*
X142618600Y-110233600D01*
X156320800Y-111531400D02*
X143916400Y-111531400D01*
X142618600Y-110233600D02*
X142618600Y-110314600D01*
X142618600Y-110314600D02*
X141097000Y-111836200D01*
X127618600Y-110233600D02*
X127618600Y-108721600D01*
X129221200Y-111836200D02*
X127618600Y-110233600D01*
X141097000Y-111836200D02*
X129221200Y-111836200D01*
X127618600Y-110233600D02*
X127535800Y-110233600D01*
X127535800Y-110233600D02*
X126009400Y-111760000D01*
X113813200Y-111760000D02*
X112238600Y-110185400D01*
X112238600Y-110185400D02*
X112238600Y-108673400D01*
X126009400Y-111760000D02*
X113813200Y-111760000D01*
X112238600Y-110185400D02*
X112191600Y-110185400D01*
X112191600Y-110185400D02*
X110591600Y-111785400D01*
X97238600Y-110185400D02*
X97238600Y-108673400D01*
X98838600Y-111785400D02*
X97238600Y-110185400D01*
X110591600Y-111785400D02*
X98838600Y-111785400D01*
X97238600Y-110185400D02*
X97238600Y-110508000D01*
X97238600Y-110508000D02*
X95910400Y-111836200D01*
X82238600Y-110185400D02*
X82238600Y-108673400D01*
X83889400Y-111836200D02*
X82238600Y-110185400D01*
X95910400Y-111836200D02*
X83889400Y-111836200D01*
X176784000Y-107899200D02*
X175082200Y-107899200D01*
X174259800Y-108721600D02*
X157618600Y-108721600D01*
X175082200Y-107899200D02*
X174259800Y-108721600D01*
X157759400Y-59537600D02*
X127787400Y-59537600D01*
X70866000Y-59537600D02*
X127221715Y-59537600D01*
X70111401Y-60292199D02*
X70866000Y-59537600D01*
X82238600Y-110185400D02*
X80511600Y-111912400D01*
X80511600Y-111912400D02*
X70612000Y-111912400D01*
X127221715Y-59537600D02*
X127787400Y-59537600D01*
X70111401Y-60419199D02*
X70111401Y-60292199D01*
X70612000Y-111912400D02*
X68453000Y-109753400D01*
X68453000Y-109753400D02*
X68453000Y-62077600D01*
X68453000Y-62077600D02*
X70111401Y-60419199D01*
D26*
G04 #@! TO.N,/D11*
X195901919Y-110439200D02*
X195851119Y-110388400D01*
X197104000Y-110439200D02*
X195901919Y-110439200D01*
X195851119Y-110388400D02*
X191109600Y-110388400D01*
X191109600Y-110388400D02*
X188493400Y-107772200D01*
X188493400Y-107772200D02*
X188493400Y-33782000D01*
X184708800Y-29997400D02*
X173202600Y-29997400D01*
X188493400Y-33782000D02*
X184708800Y-29997400D01*
G04 #@! TO.N,/D12*
X197104000Y-107899200D02*
X195834000Y-107899200D01*
X195834000Y-107899200D02*
X191897000Y-103962200D01*
X191897000Y-103962200D02*
X191897000Y-27609800D01*
X189077600Y-24790400D02*
X158115000Y-24790400D01*
X191897000Y-27609800D02*
X189077600Y-24790400D01*
D25*
G04 #@! TO.N,/RJ45_4*
X205383000Y-142392400D02*
X205613000Y-142392400D01*
G04 #@! TO.N,/RJ45_5*
X168922599Y-150558601D02*
X176313999Y-150558601D01*
X168122600Y-151358600D02*
X168922599Y-150558601D01*
X176313999Y-150558601D02*
X179552600Y-147320000D01*
X183286400Y-147320000D02*
X185674000Y-144932400D01*
X179552600Y-147320000D02*
X183286400Y-147320000D01*
X204495400Y-147320000D02*
X206883000Y-144932400D01*
X196799200Y-147320000D02*
X195884800Y-147320000D01*
X196799200Y-147320000D02*
X204495400Y-147320000D01*
X183286400Y-147320000D02*
X196799200Y-147320000D01*
X195884800Y-147320000D02*
X194284600Y-145719800D01*
X194284600Y-145719800D02*
X194284600Y-139446000D01*
X194284600Y-139446000D02*
X192481200Y-137642600D01*
X192481200Y-137642600D02*
X190398400Y-137642600D01*
X190398400Y-137642600D02*
X190398400Y-137642600D01*
G04 #@! TO.N,/A5*
X140101600Y-113995200D02*
X140078600Y-113972200D01*
X155067000Y-113995200D02*
X140101600Y-113995200D01*
X125140800Y-113972200D02*
X125078600Y-113910000D01*
X140078600Y-113972200D02*
X125140800Y-113972200D01*
X94758400Y-113910000D02*
X94716600Y-113868200D01*
X125078600Y-113910000D02*
X94758400Y-113910000D01*
X79730600Y-113868200D02*
X79698600Y-113836200D01*
X94716600Y-113868200D02*
X79730600Y-113868200D01*
X125424800Y-56926200D02*
X125224200Y-57126800D01*
X155224200Y-56926200D02*
X125424800Y-56926200D01*
X79698600Y-113836200D02*
X70402200Y-113836200D01*
X70402200Y-113836200D02*
X66014600Y-109448600D01*
X66014600Y-109448600D02*
X66014600Y-61366400D01*
X70254200Y-57126800D02*
X125224200Y-57126800D01*
X66014600Y-61366400D02*
X70254200Y-57126800D01*
G04 #@! TO.N,/A3*
X72249200Y-102502800D02*
X72059800Y-102692200D01*
X86512915Y-102684800D02*
X86360000Y-102531885D01*
X86360000Y-102531885D02*
X86360000Y-102514400D01*
X87078600Y-102684800D02*
X86512915Y-102684800D01*
X86360000Y-102514400D02*
X72249200Y-102502800D01*
X102666800Y-102691085D02*
X102666800Y-102590600D01*
X102644285Y-102713600D02*
X102666800Y-102691085D01*
X102078600Y-102713600D02*
X102644285Y-102713600D01*
X147458600Y-102502800D02*
X102666800Y-102590600D01*
X102666800Y-102590600D02*
X86360000Y-102514400D01*
X148024285Y-102502800D02*
X148035885Y-102514400D01*
X147458600Y-102502800D02*
X148024285Y-102502800D01*
X150315000Y-105359200D02*
X147458600Y-102502800D01*
X176784000Y-105359200D02*
X150315000Y-105359200D01*
X147604200Y-37934400D02*
X147604200Y-36225200D01*
X147604200Y-36225200D02*
X147015200Y-35636200D01*
X132604200Y-36422400D02*
X132604200Y-37934400D01*
X133390400Y-35636200D02*
X132604200Y-36422400D01*
X147015200Y-35636200D02*
X133390400Y-35636200D01*
X132604200Y-36422400D02*
X131868800Y-35687000D01*
X117604200Y-36422400D02*
X117604200Y-37934400D01*
X118339600Y-35687000D02*
X117604200Y-36422400D01*
X131868800Y-35687000D02*
X118339600Y-35687000D01*
G04 #@! TO.N,/A1*
X79832200Y-97866200D02*
X79698600Y-97732600D01*
X155067000Y-97866200D02*
X79832200Y-97866200D01*
X155466999Y-98266199D02*
X155067000Y-97866200D01*
X158329999Y-101129199D02*
X155466999Y-98266199D01*
X175934001Y-101129199D02*
X158329999Y-101129199D01*
X176784000Y-100279200D02*
X175934001Y-101129199D01*
X125344200Y-42778400D02*
X125224200Y-42898400D01*
X155224200Y-42778400D02*
X125344200Y-42778400D01*
X125224200Y-42898400D02*
X118133200Y-42898400D01*
X118133200Y-42898400D02*
X118133200Y-42898400D01*
D26*
G04 #@! TO.N,/D13*
X191439800Y-19608800D02*
X143205200Y-19608800D01*
X194437000Y-22606000D02*
X191439800Y-19608800D01*
X194437000Y-102692200D02*
X197104000Y-105359200D01*
X194437000Y-22606000D02*
X194437000Y-102692200D01*
D25*
G04 #@! TO.N,/DP*
X72200600Y-119216000D02*
X72078600Y-119094000D01*
X147458600Y-119216000D02*
X72200600Y-119216000D01*
X147604200Y-51662400D02*
X146513200Y-50571400D01*
X147604200Y-53174400D02*
X147604200Y-51662400D01*
X132604200Y-51662400D02*
X132604200Y-53174400D01*
X133695200Y-50571400D02*
X132604200Y-51662400D01*
X146513200Y-50571400D02*
X133695200Y-50571400D01*
X132604200Y-51662400D02*
X132604200Y-51654400D01*
X132604200Y-51654400D02*
X131673600Y-50723800D01*
X117604200Y-51662400D02*
X117604200Y-53174400D01*
X118542800Y-50723800D02*
X117604200Y-51662400D01*
X131673600Y-50723800D02*
X118542800Y-50723800D01*
X72078600Y-119094000D02*
X70453000Y-119094000D01*
X70453000Y-119094000D02*
X61264800Y-109905800D01*
X61264800Y-109905800D02*
X61264800Y-60528200D01*
X68618600Y-53174400D02*
X117604200Y-53174400D01*
X61264800Y-60528200D02*
X68618600Y-53174400D01*
G04 #@! TO.N,/A*
X149587200Y-99828600D02*
X149961600Y-100203000D01*
X135744485Y-99822000D02*
X135763000Y-99822000D01*
X135564285Y-100002200D02*
X135744485Y-99822000D01*
X134998600Y-100002200D02*
X135564285Y-100002200D01*
X135763000Y-99822000D02*
X149587200Y-99828600D01*
X120555285Y-100076000D02*
X120624600Y-100006685D01*
X119989600Y-100076000D02*
X120555285Y-100076000D01*
X120624600Y-100006685D02*
X120624600Y-99949000D01*
X74618600Y-99828600D02*
X120624600Y-99949000D01*
X120624600Y-99949000D02*
X135763000Y-99822000D01*
X152577800Y-102819200D02*
X149961600Y-100203000D01*
X176784000Y-102819200D02*
X152577800Y-102819200D01*
X150144200Y-39446400D02*
X148874400Y-40716200D01*
X150144200Y-37934400D02*
X150144200Y-39446400D01*
X135144200Y-39446400D02*
X135144200Y-37934400D01*
X148874400Y-40716200D02*
X136414000Y-40716200D01*
X135237600Y-39539800D02*
X134958200Y-39539800D01*
X135237600Y-39539800D02*
X135144200Y-39446400D01*
X136414000Y-40716200D02*
X135237600Y-39539800D01*
X134958200Y-39539800D02*
X133731000Y-40767000D01*
X120144200Y-39446400D02*
X120144200Y-37934400D01*
X121464800Y-40767000D02*
X120144200Y-39446400D01*
X133731000Y-40767000D02*
X121464800Y-40767000D01*
G04 #@! TO.N,/C*
X149929600Y-116503200D02*
X149998600Y-116572200D01*
X74618600Y-116503200D02*
X149929600Y-116503200D01*
X150144200Y-54686400D02*
X149026800Y-55803800D01*
X150144200Y-53174400D02*
X150144200Y-54686400D01*
X135144200Y-54686400D02*
X135144200Y-53174400D01*
X149026800Y-55803800D02*
X136261600Y-55803800D01*
X135237600Y-54779800D02*
X135237600Y-54906800D01*
X135237600Y-54779800D02*
X135144200Y-54686400D01*
X136261600Y-55803800D02*
X135237600Y-54779800D01*
X135237600Y-54906800D02*
X134416800Y-55727600D01*
X121185400Y-55727600D02*
X120144200Y-54686400D01*
X134416800Y-55727600D02*
X121185400Y-55727600D01*
X74618600Y-116503200D02*
X70554600Y-116503200D01*
X70554600Y-116503200D02*
X63474600Y-109423200D01*
X63474600Y-109423200D02*
X63474600Y-61112400D01*
X63474600Y-61112400D02*
X68783200Y-55803800D01*
X120144200Y-54686400D02*
X120144200Y-53174400D01*
X119026800Y-55803800D02*
X120144200Y-54686400D01*
X68783200Y-55803800D02*
X119026800Y-55803800D01*
G04 #@! TO.N,/A0*
X157618600Y-94993600D02*
X156447800Y-96164400D01*
X143789400Y-96164400D02*
X142618600Y-94993600D01*
X142618600Y-94993600D02*
X142618600Y-93481600D01*
X156447800Y-96164400D02*
X143789400Y-96164400D01*
X142618600Y-94993600D02*
X142496400Y-94993600D01*
X142496400Y-94993600D02*
X141478000Y-96012000D01*
X127618600Y-94993600D02*
X127618600Y-93481600D01*
X128637000Y-96012000D02*
X127618600Y-94993600D01*
X141478000Y-96012000D02*
X128637000Y-96012000D01*
X127618600Y-94993600D02*
X127459600Y-94993600D01*
X127459600Y-94993600D02*
X126619000Y-95834200D01*
X112238600Y-94945400D02*
X112238600Y-93433400D01*
X113127400Y-95834200D02*
X112238600Y-94945400D01*
X126619000Y-95834200D02*
X113127400Y-95834200D01*
X112238600Y-94945400D02*
X112039200Y-94945400D01*
X112039200Y-94945400D02*
X111099600Y-95885000D01*
X97238600Y-94945400D02*
X97238600Y-93433400D01*
X98178200Y-95885000D02*
X97238600Y-94945400D01*
X111099600Y-95885000D02*
X98178200Y-95885000D01*
X97238600Y-94945400D02*
X97238600Y-94963200D01*
X97181390Y-95020410D02*
X97155990Y-95020410D01*
X97238600Y-94963200D02*
X97181390Y-95020410D01*
X97155990Y-95020410D02*
X96418400Y-95758000D01*
X82238600Y-94945400D02*
X82238600Y-93433400D01*
X83051200Y-95758000D02*
X82238600Y-94945400D01*
X96418400Y-95758000D02*
X83051200Y-95758000D01*
X157618600Y-94993600D02*
X157618600Y-93481600D01*
X160364200Y-97739200D02*
X157618600Y-94993600D01*
X176784000Y-97739200D02*
X160364200Y-97739200D01*
X128329885Y-45413000D02*
X127764200Y-45413000D01*
X157191515Y-45413000D02*
X128329885Y-45413000D01*
X157198515Y-45420000D02*
X157191515Y-45413000D01*
X157764200Y-45420000D02*
X157198515Y-45420000D01*
X127198515Y-45413000D02*
X127196315Y-45415200D01*
X127764200Y-45413000D02*
X127198515Y-45413000D01*
X127196315Y-45415200D02*
X118338600Y-45415200D01*
X118338600Y-45415200D02*
X118338600Y-45415200D01*
G04 #@! TD*
D27*
G04 #@! TO.N,GND*
G36*
X207523377Y-135730985D02*
G01*
X207509267Y-135750906D01*
X207499117Y-135773639D01*
X207495425Y-135789878D01*
X197152807Y-135913781D01*
X197186812Y-135801682D01*
X197199072Y-135677200D01*
X197196000Y-135362950D01*
X197037250Y-135204200D01*
X196088000Y-135204200D01*
X196088000Y-135224200D01*
X195834000Y-135224200D01*
X195834000Y-135204200D01*
X195814000Y-135204200D01*
X195814000Y-134950200D01*
X195834000Y-134950200D01*
X195834000Y-134000950D01*
X196088000Y-134000950D01*
X196088000Y-134950200D01*
X197037250Y-134950200D01*
X197196000Y-134791450D01*
X197199072Y-134477200D01*
X197186812Y-134352718D01*
X197150502Y-134233020D01*
X197091537Y-134122706D01*
X197012185Y-134026015D01*
X196915494Y-133946663D01*
X196805180Y-133887698D01*
X196685482Y-133851388D01*
X196561000Y-133839128D01*
X196246750Y-133842200D01*
X196088000Y-134000950D01*
X195834000Y-134000950D01*
X195675250Y-133842200D01*
X195361000Y-133839128D01*
X195236518Y-133851388D01*
X195116820Y-133887698D01*
X195006506Y-133946663D01*
X194909815Y-134026015D01*
X194830463Y-134122706D01*
X194803501Y-134173147D01*
X194748267Y-134117913D01*
X194545992Y-133982757D01*
X194321236Y-133889660D01*
X194082637Y-133842200D01*
X193839363Y-133842200D01*
X193600764Y-133889660D01*
X193376008Y-133982757D01*
X193173733Y-134117913D01*
X193001713Y-134289933D01*
X192866557Y-134492208D01*
X192773460Y-134716964D01*
X192726000Y-134955563D01*
X192726000Y-135198837D01*
X192773460Y-135437436D01*
X192866557Y-135662192D01*
X193001713Y-135864467D01*
X193099584Y-135962338D01*
X167460397Y-136269491D01*
X167411057Y-132776865D01*
X172682000Y-132776865D01*
X172682000Y-133059535D01*
X172737147Y-133336774D01*
X172845320Y-133597927D01*
X173002363Y-133832959D01*
X173202241Y-134032837D01*
X173437273Y-134189880D01*
X173698426Y-134298053D01*
X173975665Y-134353200D01*
X174258335Y-134353200D01*
X174535574Y-134298053D01*
X174796727Y-134189880D01*
X175031759Y-134032837D01*
X175231637Y-133832959D01*
X175388680Y-133597927D01*
X175496853Y-133336774D01*
X175552000Y-133059535D01*
X175552000Y-132776865D01*
X175496853Y-132499626D01*
X175388680Y-132238473D01*
X175231637Y-132003441D01*
X175031759Y-131803563D01*
X174796727Y-131646520D01*
X174535574Y-131538347D01*
X174258335Y-131483200D01*
X173975665Y-131483200D01*
X173698426Y-131538347D01*
X173437273Y-131646520D01*
X173202241Y-131803563D01*
X173002363Y-132003441D01*
X172845320Y-132238473D01*
X172737147Y-132499626D01*
X172682000Y-132776865D01*
X167411057Y-132776865D01*
X167404099Y-132284372D01*
X167442873Y-132310280D01*
X167704026Y-132418453D01*
X167981265Y-132473600D01*
X168263935Y-132473600D01*
X168541174Y-132418453D01*
X168802327Y-132310280D01*
X169037359Y-132153237D01*
X169237237Y-131953359D01*
X169394280Y-131718327D01*
X169502453Y-131457174D01*
X169557600Y-131179935D01*
X169557600Y-130897265D01*
X169502453Y-130620026D01*
X169394280Y-130358873D01*
X169237237Y-130123841D01*
X169037359Y-129923963D01*
X168802327Y-129766920D01*
X168541174Y-129658747D01*
X168263935Y-129603600D01*
X167981265Y-129603600D01*
X167704026Y-129658747D01*
X167442873Y-129766920D01*
X167369229Y-129816127D01*
X167315829Y-126036090D01*
X175342524Y-126036090D01*
X175387175Y-126183299D01*
X175512359Y-126446120D01*
X175686412Y-126679469D01*
X175902645Y-126874378D01*
X176152748Y-127023357D01*
X176427109Y-127120681D01*
X176657000Y-127000014D01*
X176657000Y-125806200D01*
X176911000Y-125806200D01*
X176911000Y-127000014D01*
X177140891Y-127120681D01*
X177415252Y-127023357D01*
X177665355Y-126874378D01*
X177881588Y-126679469D01*
X178055641Y-126446120D01*
X178180825Y-126183299D01*
X178225476Y-126036090D01*
X178104155Y-125806200D01*
X176911000Y-125806200D01*
X176657000Y-125806200D01*
X175463845Y-125806200D01*
X175342524Y-126036090D01*
X167315829Y-126036090D01*
X167081961Y-109481600D01*
X174222478Y-109481600D01*
X174259800Y-109485276D01*
X174297122Y-109481600D01*
X174297133Y-109481600D01*
X174408786Y-109470603D01*
X174552047Y-109427146D01*
X174684076Y-109356574D01*
X174799801Y-109261601D01*
X174823603Y-109232598D01*
X175397002Y-108659200D01*
X175505822Y-108659200D01*
X175630525Y-108845832D01*
X175837368Y-109052675D01*
X176011760Y-109169200D01*
X175837368Y-109285725D01*
X175630525Y-109492568D01*
X175468010Y-109735789D01*
X175356068Y-110006042D01*
X175299000Y-110292940D01*
X175299000Y-110585460D01*
X175356068Y-110872358D01*
X175468010Y-111142611D01*
X175630525Y-111385832D01*
X175837368Y-111592675D01*
X176011760Y-111709200D01*
X175837368Y-111825725D01*
X175630525Y-112032568D01*
X175468010Y-112275789D01*
X175356068Y-112546042D01*
X175299000Y-112832940D01*
X175299000Y-113125460D01*
X175356068Y-113412358D01*
X175468010Y-113682611D01*
X175630525Y-113925832D01*
X175837368Y-114132675D01*
X176011760Y-114249200D01*
X175837368Y-114365725D01*
X175630525Y-114572568D01*
X175468010Y-114815789D01*
X175356068Y-115086042D01*
X175299000Y-115372940D01*
X175299000Y-115665460D01*
X175356068Y-115952358D01*
X175468010Y-116222611D01*
X175630525Y-116465832D01*
X175837368Y-116672675D01*
X176011760Y-116789200D01*
X175837368Y-116905725D01*
X175630525Y-117112568D01*
X175468010Y-117355789D01*
X175356068Y-117626042D01*
X175299000Y-117912940D01*
X175299000Y-118205460D01*
X175356068Y-118492358D01*
X175468010Y-118762611D01*
X175630525Y-119005832D01*
X175837368Y-119212675D01*
X176011760Y-119329200D01*
X175837368Y-119445725D01*
X175630525Y-119652568D01*
X175468010Y-119895789D01*
X175356068Y-120166042D01*
X175299000Y-120452940D01*
X175299000Y-120745460D01*
X175356068Y-121032358D01*
X175468010Y-121302611D01*
X175630525Y-121545832D01*
X175837368Y-121752675D01*
X176011760Y-121869200D01*
X175837368Y-121985725D01*
X175630525Y-122192568D01*
X175468010Y-122435789D01*
X175356068Y-122706042D01*
X175299000Y-122992940D01*
X175299000Y-123285460D01*
X175356068Y-123572358D01*
X175468010Y-123842611D01*
X175630525Y-124085832D01*
X175837368Y-124292675D01*
X176019534Y-124414395D01*
X175902645Y-124484022D01*
X175686412Y-124678931D01*
X175512359Y-124912280D01*
X175387175Y-125175101D01*
X175342524Y-125322310D01*
X175463845Y-125552200D01*
X176657000Y-125552200D01*
X176657000Y-125532200D01*
X176911000Y-125532200D01*
X176911000Y-125552200D01*
X178104155Y-125552200D01*
X178225476Y-125322310D01*
X178180825Y-125175101D01*
X178055641Y-124912280D01*
X177881588Y-124678931D01*
X177665355Y-124484022D01*
X177548466Y-124414395D01*
X177730632Y-124292675D01*
X177937475Y-124085832D01*
X178099990Y-123842611D01*
X178211932Y-123572358D01*
X178269000Y-123285460D01*
X178269000Y-123159002D01*
X179217400Y-124107402D01*
X179241199Y-124136401D01*
X179356924Y-124231374D01*
X179488953Y-124301946D01*
X179632214Y-124345403D01*
X179743867Y-124356400D01*
X179743875Y-124356400D01*
X179781200Y-124360076D01*
X179818525Y-124356400D01*
X181041199Y-124356400D01*
X183673800Y-126989002D01*
X183673800Y-127051139D01*
X183713574Y-127251098D01*
X183791595Y-127439456D01*
X183904863Y-127608974D01*
X184049026Y-127753137D01*
X184218544Y-127866405D01*
X184406902Y-127944426D01*
X184606861Y-127984200D01*
X184810739Y-127984200D01*
X185010698Y-127944426D01*
X185199056Y-127866405D01*
X185368574Y-127753137D01*
X185512737Y-127608974D01*
X185626005Y-127439456D01*
X185704026Y-127251098D01*
X185743800Y-127051139D01*
X185743800Y-126847261D01*
X185704026Y-126647302D01*
X185626005Y-126458944D01*
X185512737Y-126289426D01*
X185368574Y-126145263D01*
X185199056Y-126031995D01*
X185010698Y-125953974D01*
X184810739Y-125914200D01*
X184748602Y-125914200D01*
X181919804Y-123085403D01*
X181896001Y-123056399D01*
X181780276Y-122961426D01*
X181648247Y-122890854D01*
X181504986Y-122847397D01*
X181393333Y-122836400D01*
X181393322Y-122836400D01*
X181356000Y-122832724D01*
X181318678Y-122836400D01*
X180096002Y-122836400D01*
X178225209Y-120965608D01*
X178269000Y-120745460D01*
X178269000Y-120452940D01*
X178211932Y-120166042D01*
X178099990Y-119895789D01*
X177937475Y-119652568D01*
X177730632Y-119445725D01*
X177556240Y-119329200D01*
X177730632Y-119212675D01*
X177937475Y-119005832D01*
X178099990Y-118762611D01*
X178211932Y-118492358D01*
X178269000Y-118205460D01*
X178269000Y-117912940D01*
X178211932Y-117626042D01*
X178099990Y-117355789D01*
X177937475Y-117112568D01*
X177730632Y-116905725D01*
X177556240Y-116789200D01*
X177730632Y-116672675D01*
X177937475Y-116465832D01*
X178099990Y-116222611D01*
X178211932Y-115952358D01*
X178269000Y-115665460D01*
X178269000Y-115372940D01*
X178211932Y-115086042D01*
X178099990Y-114815789D01*
X177937475Y-114572568D01*
X177730632Y-114365725D01*
X177556240Y-114249200D01*
X177730632Y-114132675D01*
X177937475Y-113925832D01*
X178099990Y-113682611D01*
X178211932Y-113412358D01*
X178269000Y-113125460D01*
X178269000Y-112832940D01*
X178211932Y-112546042D01*
X178099990Y-112275789D01*
X177937475Y-112032568D01*
X177730632Y-111825725D01*
X177556240Y-111709200D01*
X177730632Y-111592675D01*
X177937475Y-111385832D01*
X178099990Y-111142611D01*
X178211932Y-110872358D01*
X178269000Y-110585460D01*
X178269000Y-110292940D01*
X178211932Y-110006042D01*
X178099990Y-109735789D01*
X177937475Y-109492568D01*
X177730632Y-109285725D01*
X177556240Y-109169200D01*
X177730632Y-109052675D01*
X177937475Y-108845832D01*
X178099990Y-108602611D01*
X178211932Y-108332358D01*
X178269000Y-108045460D01*
X178269000Y-107752940D01*
X178211932Y-107466042D01*
X178099990Y-107195789D01*
X177937475Y-106952568D01*
X177730632Y-106745725D01*
X177556240Y-106629200D01*
X177730632Y-106512675D01*
X177937475Y-106305832D01*
X178099990Y-106062611D01*
X178211932Y-105792358D01*
X178269000Y-105505460D01*
X178269000Y-105212940D01*
X178211932Y-104926042D01*
X178099990Y-104655789D01*
X177937475Y-104412568D01*
X177730632Y-104205725D01*
X177556240Y-104089200D01*
X177730632Y-103972675D01*
X177937475Y-103765832D01*
X178099990Y-103522611D01*
X178211932Y-103252358D01*
X178269000Y-102965460D01*
X178269000Y-102672940D01*
X178211932Y-102386042D01*
X178099990Y-102115789D01*
X177937475Y-101872568D01*
X177730632Y-101665725D01*
X177556240Y-101549200D01*
X177730632Y-101432675D01*
X177937475Y-101225832D01*
X178099990Y-100982611D01*
X178211932Y-100712358D01*
X178269000Y-100425460D01*
X178269000Y-100132940D01*
X178211932Y-99846042D01*
X178099990Y-99575789D01*
X177937475Y-99332568D01*
X177730632Y-99125725D01*
X177556240Y-99009200D01*
X177730632Y-98892675D01*
X177937475Y-98685832D01*
X178099990Y-98442611D01*
X178211932Y-98172358D01*
X178269000Y-97885460D01*
X178269000Y-97592940D01*
X178211932Y-97306042D01*
X178099990Y-97035789D01*
X177937475Y-96792568D01*
X177730632Y-96585725D01*
X177548466Y-96464005D01*
X177665355Y-96394378D01*
X177881588Y-96199469D01*
X178055641Y-95966120D01*
X178180825Y-95703299D01*
X178225476Y-95556090D01*
X178104155Y-95326200D01*
X176911000Y-95326200D01*
X176911000Y-95346200D01*
X176657000Y-95346200D01*
X176657000Y-95326200D01*
X175463845Y-95326200D01*
X175342524Y-95556090D01*
X175387175Y-95703299D01*
X175512359Y-95966120D01*
X175686412Y-96199469D01*
X175902645Y-96394378D01*
X176019534Y-96464005D01*
X175837368Y-96585725D01*
X175630525Y-96792568D01*
X175505822Y-96979200D01*
X166905337Y-96979200D01*
X166760534Y-86729200D01*
X175295928Y-86729200D01*
X175295928Y-88429200D01*
X175308188Y-88553682D01*
X175344498Y-88673380D01*
X175403463Y-88783694D01*
X175482815Y-88880385D01*
X175579506Y-88959737D01*
X175689820Y-89018702D01*
X175762380Y-89040713D01*
X175630525Y-89172568D01*
X175468010Y-89415789D01*
X175356068Y-89686042D01*
X175299000Y-89972940D01*
X175299000Y-90265460D01*
X175356068Y-90552358D01*
X175468010Y-90822611D01*
X175630525Y-91065832D01*
X175837368Y-91272675D01*
X176011760Y-91389200D01*
X175837368Y-91505725D01*
X175630525Y-91712568D01*
X175468010Y-91955789D01*
X175356068Y-92226042D01*
X175299000Y-92512940D01*
X175299000Y-92805460D01*
X175356068Y-93092358D01*
X175468010Y-93362611D01*
X175630525Y-93605832D01*
X175837368Y-93812675D01*
X176019534Y-93934395D01*
X175902645Y-94004022D01*
X175686412Y-94198931D01*
X175512359Y-94432280D01*
X175387175Y-94695101D01*
X175342524Y-94842310D01*
X175463845Y-95072200D01*
X176657000Y-95072200D01*
X176657000Y-95052200D01*
X176911000Y-95052200D01*
X176911000Y-95072200D01*
X178104155Y-95072200D01*
X178225476Y-94842310D01*
X178180825Y-94695101D01*
X178055641Y-94432280D01*
X177881588Y-94198931D01*
X177665355Y-94004022D01*
X177548466Y-93934395D01*
X177730632Y-93812675D01*
X177937475Y-93605832D01*
X178099990Y-93362611D01*
X178211932Y-93092358D01*
X178269000Y-92805460D01*
X178269000Y-92512940D01*
X178211932Y-92226042D01*
X178099990Y-91955789D01*
X177937475Y-91712568D01*
X177730632Y-91505725D01*
X177556240Y-91389200D01*
X177730632Y-91272675D01*
X177937475Y-91065832D01*
X178099990Y-90822611D01*
X178211932Y-90552358D01*
X178269000Y-90265460D01*
X178269000Y-89972940D01*
X178211932Y-89686042D01*
X178099990Y-89415789D01*
X177937475Y-89172568D01*
X177805620Y-89040713D01*
X177878180Y-89018702D01*
X177988494Y-88959737D01*
X178085185Y-88880385D01*
X178164537Y-88783694D01*
X178223502Y-88673380D01*
X178259812Y-88553682D01*
X178272072Y-88429200D01*
X178272072Y-86729200D01*
X178259812Y-86604718D01*
X178223502Y-86485020D01*
X178164537Y-86374706D01*
X178085185Y-86278015D01*
X177988494Y-86198663D01*
X177878180Y-86139698D01*
X177758482Y-86103388D01*
X177634000Y-86091128D01*
X175934000Y-86091128D01*
X175809518Y-86103388D01*
X175689820Y-86139698D01*
X175579506Y-86198663D01*
X175482815Y-86278015D01*
X175403463Y-86374706D01*
X175344498Y-86485020D01*
X175308188Y-86604718D01*
X175295928Y-86729200D01*
X166760534Y-86729200D01*
X166752693Y-86174170D01*
X187483400Y-84838301D01*
X187483400Y-107722592D01*
X187478514Y-107772200D01*
X187498015Y-107970194D01*
X187536540Y-108097194D01*
X187555768Y-108160579D01*
X187649553Y-108336040D01*
X187775767Y-108489833D01*
X187814306Y-108521461D01*
X190360343Y-111067499D01*
X190391967Y-111106033D01*
X190545760Y-111232247D01*
X190721220Y-111326032D01*
X190911605Y-111383785D01*
X191109600Y-111403286D01*
X191159208Y-111398400D01*
X195584639Y-111398400D01*
X195703925Y-111434585D01*
X195852311Y-111449200D01*
X195852313Y-111449200D01*
X195901918Y-111454086D01*
X195951523Y-111449200D01*
X196013893Y-111449200D01*
X196157368Y-111592675D01*
X196331760Y-111709200D01*
X196157368Y-111825725D01*
X195950525Y-112032568D01*
X195788010Y-112275789D01*
X195676068Y-112546042D01*
X195619000Y-112832940D01*
X195619000Y-113125460D01*
X195676068Y-113412358D01*
X195788010Y-113682611D01*
X195950525Y-113925832D01*
X196157368Y-114132675D01*
X196331760Y-114249200D01*
X196157368Y-114365725D01*
X195950525Y-114572568D01*
X195788010Y-114815789D01*
X195676068Y-115086042D01*
X195619000Y-115372940D01*
X195619000Y-115665460D01*
X195676068Y-115952358D01*
X195788010Y-116222611D01*
X195950525Y-116465832D01*
X196157368Y-116672675D01*
X196331760Y-116789200D01*
X196157368Y-116905725D01*
X195950525Y-117112568D01*
X195788010Y-117355789D01*
X195676068Y-117626042D01*
X195619000Y-117912940D01*
X195619000Y-118205460D01*
X195676068Y-118492358D01*
X195788010Y-118762611D01*
X195950525Y-119005832D01*
X196157368Y-119212675D01*
X196331760Y-119329200D01*
X196157368Y-119445725D01*
X195950525Y-119652568D01*
X195788010Y-119895789D01*
X195676068Y-120166042D01*
X195619000Y-120452940D01*
X195619000Y-120745460D01*
X195676068Y-121032358D01*
X195788010Y-121302611D01*
X195950525Y-121545832D01*
X196157368Y-121752675D01*
X196331760Y-121869200D01*
X196157368Y-121985725D01*
X195950525Y-122192568D01*
X195788010Y-122435789D01*
X195676068Y-122706042D01*
X195619000Y-122992940D01*
X195619000Y-123285460D01*
X195676068Y-123572358D01*
X195788010Y-123842611D01*
X195950525Y-124085832D01*
X196157368Y-124292675D01*
X196331760Y-124409200D01*
X196157368Y-124525725D01*
X195950525Y-124732568D01*
X195788010Y-124975789D01*
X195676068Y-125246042D01*
X195619000Y-125532940D01*
X195619000Y-125825460D01*
X195676068Y-126112358D01*
X195788010Y-126382611D01*
X195950525Y-126625832D01*
X196157368Y-126832675D01*
X196400589Y-126995190D01*
X196670842Y-127107132D01*
X196957740Y-127164200D01*
X197250260Y-127164200D01*
X197537158Y-127107132D01*
X197807411Y-126995190D01*
X198050632Y-126832675D01*
X198257475Y-126625832D01*
X198419990Y-126382611D01*
X198531932Y-126112358D01*
X198589000Y-125825460D01*
X198589000Y-125532940D01*
X198531932Y-125246042D01*
X198419990Y-124975789D01*
X198257475Y-124732568D01*
X198050632Y-124525725D01*
X197876240Y-124409200D01*
X198050632Y-124292675D01*
X198176307Y-124167000D01*
X203032728Y-124167000D01*
X203044988Y-124291482D01*
X203081298Y-124411180D01*
X203140263Y-124521494D01*
X203219615Y-124618185D01*
X203316306Y-124697537D01*
X203426620Y-124756502D01*
X203546318Y-124792812D01*
X203670800Y-124805072D01*
X204235050Y-124802000D01*
X204393800Y-124643250D01*
X204393800Y-123444000D01*
X204647800Y-123444000D01*
X204647800Y-124643250D01*
X204806550Y-124802000D01*
X205370800Y-124805072D01*
X205495282Y-124792812D01*
X205614980Y-124756502D01*
X205725294Y-124697537D01*
X205821985Y-124618185D01*
X205901337Y-124521494D01*
X205960302Y-124411180D01*
X205996612Y-124291482D01*
X206008872Y-124167000D01*
X206005800Y-123602750D01*
X205847050Y-123444000D01*
X204647800Y-123444000D01*
X204393800Y-123444000D01*
X203194550Y-123444000D01*
X203035800Y-123602750D01*
X203032728Y-124167000D01*
X198176307Y-124167000D01*
X198257475Y-124085832D01*
X198419990Y-123842611D01*
X198531932Y-123572358D01*
X198589000Y-123285460D01*
X198589000Y-122992940D01*
X198531932Y-122706042D01*
X198432918Y-122467000D01*
X203032728Y-122467000D01*
X203035800Y-123031250D01*
X203194550Y-123190000D01*
X204393800Y-123190000D01*
X204393800Y-121990750D01*
X204647800Y-121990750D01*
X204647800Y-123190000D01*
X205847050Y-123190000D01*
X206005800Y-123031250D01*
X206008872Y-122467000D01*
X205996612Y-122342518D01*
X205960302Y-122222820D01*
X205901337Y-122112506D01*
X205821985Y-122015815D01*
X205725294Y-121936463D01*
X205614980Y-121877498D01*
X205495282Y-121841188D01*
X205370800Y-121828928D01*
X204806550Y-121832000D01*
X204647800Y-121990750D01*
X204393800Y-121990750D01*
X204235050Y-121832000D01*
X203670800Y-121828928D01*
X203546318Y-121841188D01*
X203426620Y-121877498D01*
X203316306Y-121936463D01*
X203219615Y-122015815D01*
X203140263Y-122112506D01*
X203081298Y-122222820D01*
X203044988Y-122342518D01*
X203032728Y-122467000D01*
X198432918Y-122467000D01*
X198419990Y-122435789D01*
X198257475Y-122192568D01*
X198050632Y-121985725D01*
X197876240Y-121869200D01*
X198050632Y-121752675D01*
X198257475Y-121545832D01*
X198419990Y-121302611D01*
X198531932Y-121032358D01*
X198589000Y-120745460D01*
X198589000Y-120452940D01*
X198531932Y-120166042D01*
X198419990Y-119895789D01*
X198257475Y-119652568D01*
X198050632Y-119445725D01*
X197876240Y-119329200D01*
X198050632Y-119212675D01*
X198257475Y-119005832D01*
X198419990Y-118762611D01*
X198531932Y-118492358D01*
X198589000Y-118205460D01*
X198589000Y-117912940D01*
X198531932Y-117626042D01*
X198419990Y-117355789D01*
X198257475Y-117112568D01*
X198050632Y-116905725D01*
X197876240Y-116789200D01*
X198050632Y-116672675D01*
X198257475Y-116465832D01*
X198419990Y-116222611D01*
X198531932Y-115952358D01*
X198589000Y-115665460D01*
X198589000Y-115372940D01*
X198531932Y-115086042D01*
X198419990Y-114815789D01*
X198257475Y-114572568D01*
X198050632Y-114365725D01*
X197876240Y-114249200D01*
X198050632Y-114132675D01*
X198257475Y-113925832D01*
X198419990Y-113682611D01*
X198531932Y-113412358D01*
X198589000Y-113125460D01*
X198589000Y-112832940D01*
X198531932Y-112546042D01*
X198419990Y-112275789D01*
X198257475Y-112032568D01*
X198050632Y-111825725D01*
X197876240Y-111709200D01*
X198050632Y-111592675D01*
X198257475Y-111385832D01*
X198419990Y-111142611D01*
X198531932Y-110872358D01*
X198589000Y-110585460D01*
X198589000Y-110292940D01*
X198531932Y-110006042D01*
X198419990Y-109735789D01*
X198257475Y-109492568D01*
X198050632Y-109285725D01*
X197876240Y-109169200D01*
X198050632Y-109052675D01*
X198257475Y-108845832D01*
X198419990Y-108602611D01*
X198531932Y-108332358D01*
X198589000Y-108045460D01*
X198589000Y-107752940D01*
X198531932Y-107466042D01*
X198419990Y-107195789D01*
X198257475Y-106952568D01*
X198050632Y-106745725D01*
X197876240Y-106629200D01*
X198050632Y-106512675D01*
X198257475Y-106305832D01*
X198419990Y-106062611D01*
X198531932Y-105792358D01*
X198589000Y-105505460D01*
X198589000Y-105212940D01*
X198531932Y-104926042D01*
X198419990Y-104655789D01*
X198257475Y-104412568D01*
X198050632Y-104205725D01*
X197876240Y-104089200D01*
X198050632Y-103972675D01*
X198257475Y-103765832D01*
X198419990Y-103522611D01*
X198531932Y-103252358D01*
X198589000Y-102965460D01*
X198589000Y-102672940D01*
X198531932Y-102386042D01*
X198419990Y-102115789D01*
X198321508Y-101968400D01*
X199272728Y-101968400D01*
X199272728Y-103568400D01*
X199284988Y-103692882D01*
X199321298Y-103812580D01*
X199380263Y-103922894D01*
X199459615Y-104019585D01*
X199556306Y-104098937D01*
X199666620Y-104157902D01*
X199786318Y-104194212D01*
X199910800Y-104206472D01*
X201510800Y-104206472D01*
X201635282Y-104194212D01*
X201754980Y-104157902D01*
X201865294Y-104098937D01*
X201961985Y-104019585D01*
X202041337Y-103922894D01*
X202100302Y-103812580D01*
X202115917Y-103761102D01*
X202397703Y-103761102D01*
X202469286Y-104005071D01*
X202724796Y-104125971D01*
X202998984Y-104194700D01*
X203281312Y-104208617D01*
X203560930Y-104167187D01*
X203827092Y-104072003D01*
X203952314Y-104005071D01*
X204023897Y-103761102D01*
X203210800Y-102948005D01*
X202397703Y-103761102D01*
X202115917Y-103761102D01*
X202136612Y-103692882D01*
X202148872Y-103568400D01*
X202148872Y-103561185D01*
X202218098Y-103581497D01*
X203031195Y-102768400D01*
X203390405Y-102768400D01*
X204203502Y-103581497D01*
X204447471Y-103509914D01*
X204568371Y-103254404D01*
X204637100Y-102980216D01*
X204651017Y-102697888D01*
X204609587Y-102418270D01*
X204514403Y-102152108D01*
X204447471Y-102026886D01*
X204203502Y-101955303D01*
X203390405Y-102768400D01*
X203031195Y-102768400D01*
X202218098Y-101955303D01*
X202148872Y-101975615D01*
X202148872Y-101968400D01*
X202136612Y-101843918D01*
X202115918Y-101775698D01*
X202397703Y-101775698D01*
X203210800Y-102588795D01*
X204023897Y-101775698D01*
X203952314Y-101531729D01*
X203696804Y-101410829D01*
X203422616Y-101342100D01*
X203140288Y-101328183D01*
X202860670Y-101369613D01*
X202594508Y-101464797D01*
X202469286Y-101531729D01*
X202397703Y-101775698D01*
X202115918Y-101775698D01*
X202100302Y-101724220D01*
X202041337Y-101613906D01*
X201961985Y-101517215D01*
X201865294Y-101437863D01*
X201754980Y-101378898D01*
X201635282Y-101342588D01*
X201510800Y-101330328D01*
X199910800Y-101330328D01*
X199786318Y-101342588D01*
X199666620Y-101378898D01*
X199556306Y-101437863D01*
X199459615Y-101517215D01*
X199380263Y-101613906D01*
X199321298Y-101724220D01*
X199284988Y-101843918D01*
X199272728Y-101968400D01*
X198321508Y-101968400D01*
X198257475Y-101872568D01*
X198050632Y-101665725D01*
X197876240Y-101549200D01*
X198050632Y-101432675D01*
X198257475Y-101225832D01*
X198419990Y-100982611D01*
X198531932Y-100712358D01*
X198589000Y-100425460D01*
X198589000Y-100132940D01*
X198531932Y-99846042D01*
X198419990Y-99575789D01*
X198257475Y-99332568D01*
X198125620Y-99200713D01*
X198198180Y-99178702D01*
X198308494Y-99119737D01*
X198405185Y-99040385D01*
X198484537Y-98943694D01*
X198543502Y-98833380D01*
X198579812Y-98713682D01*
X198592072Y-98589200D01*
X198592072Y-96889200D01*
X198579812Y-96764718D01*
X198543502Y-96645020D01*
X198484537Y-96534706D01*
X198405185Y-96438015D01*
X198308494Y-96358663D01*
X198198180Y-96299698D01*
X198078482Y-96263388D01*
X197954000Y-96251128D01*
X196254000Y-96251128D01*
X196129518Y-96263388D01*
X196009820Y-96299698D01*
X195899506Y-96358663D01*
X195802815Y-96438015D01*
X195723463Y-96534706D01*
X195664498Y-96645020D01*
X195628188Y-96764718D01*
X195615928Y-96889200D01*
X195615928Y-98589200D01*
X195628188Y-98713682D01*
X195664498Y-98833380D01*
X195723463Y-98943694D01*
X195802815Y-99040385D01*
X195899506Y-99119737D01*
X196009820Y-99178702D01*
X196082380Y-99200713D01*
X195950525Y-99332568D01*
X195788010Y-99575789D01*
X195676068Y-99846042D01*
X195619000Y-100132940D01*
X195619000Y-100425460D01*
X195676068Y-100712358D01*
X195788010Y-100982611D01*
X195950525Y-101225832D01*
X196157368Y-101432675D01*
X196331760Y-101549200D01*
X196157368Y-101665725D01*
X195950525Y-101872568D01*
X195788010Y-102115789D01*
X195676068Y-102386042D01*
X195656678Y-102483523D01*
X195447000Y-102273845D01*
X195447000Y-88740521D01*
X198525000Y-88740521D01*
X198525000Y-89161079D01*
X198607047Y-89573556D01*
X198767988Y-89962102D01*
X199001637Y-90311783D01*
X199299017Y-90609163D01*
X199648698Y-90842812D01*
X200037244Y-91003753D01*
X200449721Y-91085800D01*
X200870279Y-91085800D01*
X201282756Y-91003753D01*
X201671302Y-90842812D01*
X202020983Y-90609163D01*
X202179346Y-90450800D01*
X203601928Y-90450800D01*
X203614188Y-90575282D01*
X203650498Y-90694980D01*
X203709463Y-90805294D01*
X203788815Y-90901985D01*
X203885506Y-90981337D01*
X203995820Y-91040302D01*
X204115518Y-91076612D01*
X204240000Y-91088872D01*
X205454250Y-91085800D01*
X205613000Y-90927050D01*
X205613000Y-89077800D01*
X205867000Y-89077800D01*
X205867000Y-90927050D01*
X206025750Y-91085800D01*
X207240000Y-91088872D01*
X207364482Y-91076612D01*
X207484180Y-91040302D01*
X207594494Y-90981337D01*
X207691185Y-90901985D01*
X207770537Y-90805294D01*
X207829502Y-90694980D01*
X207865812Y-90575282D01*
X207878072Y-90450800D01*
X207875000Y-89236550D01*
X207716250Y-89077800D01*
X205867000Y-89077800D01*
X205613000Y-89077800D01*
X203763750Y-89077800D01*
X203605000Y-89236550D01*
X203601928Y-90450800D01*
X202179346Y-90450800D01*
X202318363Y-90311783D01*
X202552012Y-89962102D01*
X202712953Y-89573556D01*
X202795000Y-89161079D01*
X202795000Y-88740521D01*
X202712953Y-88328044D01*
X202552012Y-87939498D01*
X202318363Y-87589817D01*
X202179346Y-87450800D01*
X203601928Y-87450800D01*
X203605000Y-88665050D01*
X203763750Y-88823800D01*
X205613000Y-88823800D01*
X205613000Y-86974550D01*
X205867000Y-86974550D01*
X205867000Y-88823800D01*
X207716250Y-88823800D01*
X207875000Y-88665050D01*
X207878072Y-87450800D01*
X207865812Y-87326318D01*
X207829502Y-87206620D01*
X207770537Y-87096306D01*
X207691185Y-86999615D01*
X207594494Y-86920263D01*
X207484180Y-86861298D01*
X207364482Y-86824988D01*
X207240000Y-86812728D01*
X206025750Y-86815800D01*
X205867000Y-86974550D01*
X205613000Y-86974550D01*
X205454250Y-86815800D01*
X204240000Y-86812728D01*
X204115518Y-86824988D01*
X203995820Y-86861298D01*
X203885506Y-86920263D01*
X203788815Y-86999615D01*
X203709463Y-87096306D01*
X203650498Y-87206620D01*
X203614188Y-87326318D01*
X203601928Y-87450800D01*
X202179346Y-87450800D01*
X202020983Y-87292437D01*
X201671302Y-87058788D01*
X201282756Y-86897847D01*
X200870279Y-86815800D01*
X200449721Y-86815800D01*
X200037244Y-86897847D01*
X199648698Y-87058788D01*
X199299017Y-87292437D01*
X199001637Y-87589817D01*
X198767988Y-87939498D01*
X198607047Y-88328044D01*
X198525000Y-88740521D01*
X195447000Y-88740521D01*
X195447000Y-84325134D01*
X209063348Y-83447708D01*
X207523377Y-135730985D01*
G37*
X207523377Y-135730985D02*
X207509267Y-135750906D01*
X207499117Y-135773639D01*
X207495425Y-135789878D01*
X197152807Y-135913781D01*
X197186812Y-135801682D01*
X197199072Y-135677200D01*
X197196000Y-135362950D01*
X197037250Y-135204200D01*
X196088000Y-135204200D01*
X196088000Y-135224200D01*
X195834000Y-135224200D01*
X195834000Y-135204200D01*
X195814000Y-135204200D01*
X195814000Y-134950200D01*
X195834000Y-134950200D01*
X195834000Y-134000950D01*
X196088000Y-134000950D01*
X196088000Y-134950200D01*
X197037250Y-134950200D01*
X197196000Y-134791450D01*
X197199072Y-134477200D01*
X197186812Y-134352718D01*
X197150502Y-134233020D01*
X197091537Y-134122706D01*
X197012185Y-134026015D01*
X196915494Y-133946663D01*
X196805180Y-133887698D01*
X196685482Y-133851388D01*
X196561000Y-133839128D01*
X196246750Y-133842200D01*
X196088000Y-134000950D01*
X195834000Y-134000950D01*
X195675250Y-133842200D01*
X195361000Y-133839128D01*
X195236518Y-133851388D01*
X195116820Y-133887698D01*
X195006506Y-133946663D01*
X194909815Y-134026015D01*
X194830463Y-134122706D01*
X194803501Y-134173147D01*
X194748267Y-134117913D01*
X194545992Y-133982757D01*
X194321236Y-133889660D01*
X194082637Y-133842200D01*
X193839363Y-133842200D01*
X193600764Y-133889660D01*
X193376008Y-133982757D01*
X193173733Y-134117913D01*
X193001713Y-134289933D01*
X192866557Y-134492208D01*
X192773460Y-134716964D01*
X192726000Y-134955563D01*
X192726000Y-135198837D01*
X192773460Y-135437436D01*
X192866557Y-135662192D01*
X193001713Y-135864467D01*
X193099584Y-135962338D01*
X167460397Y-136269491D01*
X167411057Y-132776865D01*
X172682000Y-132776865D01*
X172682000Y-133059535D01*
X172737147Y-133336774D01*
X172845320Y-133597927D01*
X173002363Y-133832959D01*
X173202241Y-134032837D01*
X173437273Y-134189880D01*
X173698426Y-134298053D01*
X173975665Y-134353200D01*
X174258335Y-134353200D01*
X174535574Y-134298053D01*
X174796727Y-134189880D01*
X175031759Y-134032837D01*
X175231637Y-133832959D01*
X175388680Y-133597927D01*
X175496853Y-133336774D01*
X175552000Y-133059535D01*
X175552000Y-132776865D01*
X175496853Y-132499626D01*
X175388680Y-132238473D01*
X175231637Y-132003441D01*
X175031759Y-131803563D01*
X174796727Y-131646520D01*
X174535574Y-131538347D01*
X174258335Y-131483200D01*
X173975665Y-131483200D01*
X173698426Y-131538347D01*
X173437273Y-131646520D01*
X173202241Y-131803563D01*
X173002363Y-132003441D01*
X172845320Y-132238473D01*
X172737147Y-132499626D01*
X172682000Y-132776865D01*
X167411057Y-132776865D01*
X167404099Y-132284372D01*
X167442873Y-132310280D01*
X167704026Y-132418453D01*
X167981265Y-132473600D01*
X168263935Y-132473600D01*
X168541174Y-132418453D01*
X168802327Y-132310280D01*
X169037359Y-132153237D01*
X169237237Y-131953359D01*
X169394280Y-131718327D01*
X169502453Y-131457174D01*
X169557600Y-131179935D01*
X169557600Y-130897265D01*
X169502453Y-130620026D01*
X169394280Y-130358873D01*
X169237237Y-130123841D01*
X169037359Y-129923963D01*
X168802327Y-129766920D01*
X168541174Y-129658747D01*
X168263935Y-129603600D01*
X167981265Y-129603600D01*
X167704026Y-129658747D01*
X167442873Y-129766920D01*
X167369229Y-129816127D01*
X167315829Y-126036090D01*
X175342524Y-126036090D01*
X175387175Y-126183299D01*
X175512359Y-126446120D01*
X175686412Y-126679469D01*
X175902645Y-126874378D01*
X176152748Y-127023357D01*
X176427109Y-127120681D01*
X176657000Y-127000014D01*
X176657000Y-125806200D01*
X176911000Y-125806200D01*
X176911000Y-127000014D01*
X177140891Y-127120681D01*
X177415252Y-127023357D01*
X177665355Y-126874378D01*
X177881588Y-126679469D01*
X178055641Y-126446120D01*
X178180825Y-126183299D01*
X178225476Y-126036090D01*
X178104155Y-125806200D01*
X176911000Y-125806200D01*
X176657000Y-125806200D01*
X175463845Y-125806200D01*
X175342524Y-126036090D01*
X167315829Y-126036090D01*
X167081961Y-109481600D01*
X174222478Y-109481600D01*
X174259800Y-109485276D01*
X174297122Y-109481600D01*
X174297133Y-109481600D01*
X174408786Y-109470603D01*
X174552047Y-109427146D01*
X174684076Y-109356574D01*
X174799801Y-109261601D01*
X174823603Y-109232598D01*
X175397002Y-108659200D01*
X175505822Y-108659200D01*
X175630525Y-108845832D01*
X175837368Y-109052675D01*
X176011760Y-109169200D01*
X175837368Y-109285725D01*
X175630525Y-109492568D01*
X175468010Y-109735789D01*
X175356068Y-110006042D01*
X175299000Y-110292940D01*
X175299000Y-110585460D01*
X175356068Y-110872358D01*
X175468010Y-111142611D01*
X175630525Y-111385832D01*
X175837368Y-111592675D01*
X176011760Y-111709200D01*
X175837368Y-111825725D01*
X175630525Y-112032568D01*
X175468010Y-112275789D01*
X175356068Y-112546042D01*
X175299000Y-112832940D01*
X175299000Y-113125460D01*
X175356068Y-113412358D01*
X175468010Y-113682611D01*
X175630525Y-113925832D01*
X175837368Y-114132675D01*
X176011760Y-114249200D01*
X175837368Y-114365725D01*
X175630525Y-114572568D01*
X175468010Y-114815789D01*
X175356068Y-115086042D01*
X175299000Y-115372940D01*
X175299000Y-115665460D01*
X175356068Y-115952358D01*
X175468010Y-116222611D01*
X175630525Y-116465832D01*
X175837368Y-116672675D01*
X176011760Y-116789200D01*
X175837368Y-116905725D01*
X175630525Y-117112568D01*
X175468010Y-117355789D01*
X175356068Y-117626042D01*
X175299000Y-117912940D01*
X175299000Y-118205460D01*
X175356068Y-118492358D01*
X175468010Y-118762611D01*
X175630525Y-119005832D01*
X175837368Y-119212675D01*
X176011760Y-119329200D01*
X175837368Y-119445725D01*
X175630525Y-119652568D01*
X175468010Y-119895789D01*
X175356068Y-120166042D01*
X175299000Y-120452940D01*
X175299000Y-120745460D01*
X175356068Y-121032358D01*
X175468010Y-121302611D01*
X175630525Y-121545832D01*
X175837368Y-121752675D01*
X176011760Y-121869200D01*
X175837368Y-121985725D01*
X175630525Y-122192568D01*
X175468010Y-122435789D01*
X175356068Y-122706042D01*
X175299000Y-122992940D01*
X175299000Y-123285460D01*
X175356068Y-123572358D01*
X175468010Y-123842611D01*
X175630525Y-124085832D01*
X175837368Y-124292675D01*
X176019534Y-124414395D01*
X175902645Y-124484022D01*
X175686412Y-124678931D01*
X175512359Y-124912280D01*
X175387175Y-125175101D01*
X175342524Y-125322310D01*
X175463845Y-125552200D01*
X176657000Y-125552200D01*
X176657000Y-125532200D01*
X176911000Y-125532200D01*
X176911000Y-125552200D01*
X178104155Y-125552200D01*
X178225476Y-125322310D01*
X178180825Y-125175101D01*
X178055641Y-124912280D01*
X177881588Y-124678931D01*
X177665355Y-124484022D01*
X177548466Y-124414395D01*
X177730632Y-124292675D01*
X177937475Y-124085832D01*
X178099990Y-123842611D01*
X178211932Y-123572358D01*
X178269000Y-123285460D01*
X178269000Y-123159002D01*
X179217400Y-124107402D01*
X179241199Y-124136401D01*
X179356924Y-124231374D01*
X179488953Y-124301946D01*
X179632214Y-124345403D01*
X179743867Y-124356400D01*
X179743875Y-124356400D01*
X179781200Y-124360076D01*
X179818525Y-124356400D01*
X181041199Y-124356400D01*
X183673800Y-126989002D01*
X183673800Y-127051139D01*
X183713574Y-127251098D01*
X183791595Y-127439456D01*
X183904863Y-127608974D01*
X184049026Y-127753137D01*
X184218544Y-127866405D01*
X184406902Y-127944426D01*
X184606861Y-127984200D01*
X184810739Y-127984200D01*
X185010698Y-127944426D01*
X185199056Y-127866405D01*
X185368574Y-127753137D01*
X185512737Y-127608974D01*
X185626005Y-127439456D01*
X185704026Y-127251098D01*
X185743800Y-127051139D01*
X185743800Y-126847261D01*
X185704026Y-126647302D01*
X185626005Y-126458944D01*
X185512737Y-126289426D01*
X185368574Y-126145263D01*
X185199056Y-126031995D01*
X185010698Y-125953974D01*
X184810739Y-125914200D01*
X184748602Y-125914200D01*
X181919804Y-123085403D01*
X181896001Y-123056399D01*
X181780276Y-122961426D01*
X181648247Y-122890854D01*
X181504986Y-122847397D01*
X181393333Y-122836400D01*
X181393322Y-122836400D01*
X181356000Y-122832724D01*
X181318678Y-122836400D01*
X180096002Y-122836400D01*
X178225209Y-120965608D01*
X178269000Y-120745460D01*
X178269000Y-120452940D01*
X178211932Y-120166042D01*
X178099990Y-119895789D01*
X177937475Y-119652568D01*
X177730632Y-119445725D01*
X177556240Y-119329200D01*
X177730632Y-119212675D01*
X177937475Y-119005832D01*
X178099990Y-118762611D01*
X178211932Y-118492358D01*
X178269000Y-118205460D01*
X178269000Y-117912940D01*
X178211932Y-117626042D01*
X178099990Y-117355789D01*
X177937475Y-117112568D01*
X177730632Y-116905725D01*
X177556240Y-116789200D01*
X177730632Y-116672675D01*
X177937475Y-116465832D01*
X178099990Y-116222611D01*
X178211932Y-115952358D01*
X178269000Y-115665460D01*
X178269000Y-115372940D01*
X178211932Y-115086042D01*
X178099990Y-114815789D01*
X177937475Y-114572568D01*
X177730632Y-114365725D01*
X177556240Y-114249200D01*
X177730632Y-114132675D01*
X177937475Y-113925832D01*
X178099990Y-113682611D01*
X178211932Y-113412358D01*
X178269000Y-113125460D01*
X178269000Y-112832940D01*
X178211932Y-112546042D01*
X178099990Y-112275789D01*
X177937475Y-112032568D01*
X177730632Y-111825725D01*
X177556240Y-111709200D01*
X177730632Y-111592675D01*
X177937475Y-111385832D01*
X178099990Y-111142611D01*
X178211932Y-110872358D01*
X178269000Y-110585460D01*
X178269000Y-110292940D01*
X178211932Y-110006042D01*
X178099990Y-109735789D01*
X177937475Y-109492568D01*
X177730632Y-109285725D01*
X177556240Y-109169200D01*
X177730632Y-109052675D01*
X177937475Y-108845832D01*
X178099990Y-108602611D01*
X178211932Y-108332358D01*
X178269000Y-108045460D01*
X178269000Y-107752940D01*
X178211932Y-107466042D01*
X178099990Y-107195789D01*
X177937475Y-106952568D01*
X177730632Y-106745725D01*
X177556240Y-106629200D01*
X177730632Y-106512675D01*
X177937475Y-106305832D01*
X178099990Y-106062611D01*
X178211932Y-105792358D01*
X178269000Y-105505460D01*
X178269000Y-105212940D01*
X178211932Y-104926042D01*
X178099990Y-104655789D01*
X177937475Y-104412568D01*
X177730632Y-104205725D01*
X177556240Y-104089200D01*
X177730632Y-103972675D01*
X177937475Y-103765832D01*
X178099990Y-103522611D01*
X178211932Y-103252358D01*
X178269000Y-102965460D01*
X178269000Y-102672940D01*
X178211932Y-102386042D01*
X178099990Y-102115789D01*
X177937475Y-101872568D01*
X177730632Y-101665725D01*
X177556240Y-101549200D01*
X177730632Y-101432675D01*
X177937475Y-101225832D01*
X178099990Y-100982611D01*
X178211932Y-100712358D01*
X178269000Y-100425460D01*
X178269000Y-100132940D01*
X178211932Y-99846042D01*
X178099990Y-99575789D01*
X177937475Y-99332568D01*
X177730632Y-99125725D01*
X177556240Y-99009200D01*
X177730632Y-98892675D01*
X177937475Y-98685832D01*
X178099990Y-98442611D01*
X178211932Y-98172358D01*
X178269000Y-97885460D01*
X178269000Y-97592940D01*
X178211932Y-97306042D01*
X178099990Y-97035789D01*
X177937475Y-96792568D01*
X177730632Y-96585725D01*
X177548466Y-96464005D01*
X177665355Y-96394378D01*
X177881588Y-96199469D01*
X178055641Y-95966120D01*
X178180825Y-95703299D01*
X178225476Y-95556090D01*
X178104155Y-95326200D01*
X176911000Y-95326200D01*
X176911000Y-95346200D01*
X176657000Y-95346200D01*
X176657000Y-95326200D01*
X175463845Y-95326200D01*
X175342524Y-95556090D01*
X175387175Y-95703299D01*
X175512359Y-95966120D01*
X175686412Y-96199469D01*
X175902645Y-96394378D01*
X176019534Y-96464005D01*
X175837368Y-96585725D01*
X175630525Y-96792568D01*
X175505822Y-96979200D01*
X166905337Y-96979200D01*
X166760534Y-86729200D01*
X175295928Y-86729200D01*
X175295928Y-88429200D01*
X175308188Y-88553682D01*
X175344498Y-88673380D01*
X175403463Y-88783694D01*
X175482815Y-88880385D01*
X175579506Y-88959737D01*
X175689820Y-89018702D01*
X175762380Y-89040713D01*
X175630525Y-89172568D01*
X175468010Y-89415789D01*
X175356068Y-89686042D01*
X175299000Y-89972940D01*
X175299000Y-90265460D01*
X175356068Y-90552358D01*
X175468010Y-90822611D01*
X175630525Y-91065832D01*
X175837368Y-91272675D01*
X176011760Y-91389200D01*
X175837368Y-91505725D01*
X175630525Y-91712568D01*
X175468010Y-91955789D01*
X175356068Y-92226042D01*
X175299000Y-92512940D01*
X175299000Y-92805460D01*
X175356068Y-93092358D01*
X175468010Y-93362611D01*
X175630525Y-93605832D01*
X175837368Y-93812675D01*
X176019534Y-93934395D01*
X175902645Y-94004022D01*
X175686412Y-94198931D01*
X175512359Y-94432280D01*
X175387175Y-94695101D01*
X175342524Y-94842310D01*
X175463845Y-95072200D01*
X176657000Y-95072200D01*
X176657000Y-95052200D01*
X176911000Y-95052200D01*
X176911000Y-95072200D01*
X178104155Y-95072200D01*
X178225476Y-94842310D01*
X178180825Y-94695101D01*
X178055641Y-94432280D01*
X177881588Y-94198931D01*
X177665355Y-94004022D01*
X177548466Y-93934395D01*
X177730632Y-93812675D01*
X177937475Y-93605832D01*
X178099990Y-93362611D01*
X178211932Y-93092358D01*
X178269000Y-92805460D01*
X178269000Y-92512940D01*
X178211932Y-92226042D01*
X178099990Y-91955789D01*
X177937475Y-91712568D01*
X177730632Y-91505725D01*
X177556240Y-91389200D01*
X177730632Y-91272675D01*
X177937475Y-91065832D01*
X178099990Y-90822611D01*
X178211932Y-90552358D01*
X178269000Y-90265460D01*
X178269000Y-89972940D01*
X178211932Y-89686042D01*
X178099990Y-89415789D01*
X177937475Y-89172568D01*
X177805620Y-89040713D01*
X177878180Y-89018702D01*
X177988494Y-88959737D01*
X178085185Y-88880385D01*
X178164537Y-88783694D01*
X178223502Y-88673380D01*
X178259812Y-88553682D01*
X178272072Y-88429200D01*
X178272072Y-86729200D01*
X178259812Y-86604718D01*
X178223502Y-86485020D01*
X178164537Y-86374706D01*
X178085185Y-86278015D01*
X177988494Y-86198663D01*
X177878180Y-86139698D01*
X177758482Y-86103388D01*
X177634000Y-86091128D01*
X175934000Y-86091128D01*
X175809518Y-86103388D01*
X175689820Y-86139698D01*
X175579506Y-86198663D01*
X175482815Y-86278015D01*
X175403463Y-86374706D01*
X175344498Y-86485020D01*
X175308188Y-86604718D01*
X175295928Y-86729200D01*
X166760534Y-86729200D01*
X166752693Y-86174170D01*
X187483400Y-84838301D01*
X187483400Y-107722592D01*
X187478514Y-107772200D01*
X187498015Y-107970194D01*
X187536540Y-108097194D01*
X187555768Y-108160579D01*
X187649553Y-108336040D01*
X187775767Y-108489833D01*
X187814306Y-108521461D01*
X190360343Y-111067499D01*
X190391967Y-111106033D01*
X190545760Y-111232247D01*
X190721220Y-111326032D01*
X190911605Y-111383785D01*
X191109600Y-111403286D01*
X191159208Y-111398400D01*
X195584639Y-111398400D01*
X195703925Y-111434585D01*
X195852311Y-111449200D01*
X195852313Y-111449200D01*
X195901918Y-111454086D01*
X195951523Y-111449200D01*
X196013893Y-111449200D01*
X196157368Y-111592675D01*
X196331760Y-111709200D01*
X196157368Y-111825725D01*
X195950525Y-112032568D01*
X195788010Y-112275789D01*
X195676068Y-112546042D01*
X195619000Y-112832940D01*
X195619000Y-113125460D01*
X195676068Y-113412358D01*
X195788010Y-113682611D01*
X195950525Y-113925832D01*
X196157368Y-114132675D01*
X196331760Y-114249200D01*
X196157368Y-114365725D01*
X195950525Y-114572568D01*
X195788010Y-114815789D01*
X195676068Y-115086042D01*
X195619000Y-115372940D01*
X195619000Y-115665460D01*
X195676068Y-115952358D01*
X195788010Y-116222611D01*
X195950525Y-116465832D01*
X196157368Y-116672675D01*
X196331760Y-116789200D01*
X196157368Y-116905725D01*
X195950525Y-117112568D01*
X195788010Y-117355789D01*
X195676068Y-117626042D01*
X195619000Y-117912940D01*
X195619000Y-118205460D01*
X195676068Y-118492358D01*
X195788010Y-118762611D01*
X195950525Y-119005832D01*
X196157368Y-119212675D01*
X196331760Y-119329200D01*
X196157368Y-119445725D01*
X195950525Y-119652568D01*
X195788010Y-119895789D01*
X195676068Y-120166042D01*
X195619000Y-120452940D01*
X195619000Y-120745460D01*
X195676068Y-121032358D01*
X195788010Y-121302611D01*
X195950525Y-121545832D01*
X196157368Y-121752675D01*
X196331760Y-121869200D01*
X196157368Y-121985725D01*
X195950525Y-122192568D01*
X195788010Y-122435789D01*
X195676068Y-122706042D01*
X195619000Y-122992940D01*
X195619000Y-123285460D01*
X195676068Y-123572358D01*
X195788010Y-123842611D01*
X195950525Y-124085832D01*
X196157368Y-124292675D01*
X196331760Y-124409200D01*
X196157368Y-124525725D01*
X195950525Y-124732568D01*
X195788010Y-124975789D01*
X195676068Y-125246042D01*
X195619000Y-125532940D01*
X195619000Y-125825460D01*
X195676068Y-126112358D01*
X195788010Y-126382611D01*
X195950525Y-126625832D01*
X196157368Y-126832675D01*
X196400589Y-126995190D01*
X196670842Y-127107132D01*
X196957740Y-127164200D01*
X197250260Y-127164200D01*
X197537158Y-127107132D01*
X197807411Y-126995190D01*
X198050632Y-126832675D01*
X198257475Y-126625832D01*
X198419990Y-126382611D01*
X198531932Y-126112358D01*
X198589000Y-125825460D01*
X198589000Y-125532940D01*
X198531932Y-125246042D01*
X198419990Y-124975789D01*
X198257475Y-124732568D01*
X198050632Y-124525725D01*
X197876240Y-124409200D01*
X198050632Y-124292675D01*
X198176307Y-124167000D01*
X203032728Y-124167000D01*
X203044988Y-124291482D01*
X203081298Y-124411180D01*
X203140263Y-124521494D01*
X203219615Y-124618185D01*
X203316306Y-124697537D01*
X203426620Y-124756502D01*
X203546318Y-124792812D01*
X203670800Y-124805072D01*
X204235050Y-124802000D01*
X204393800Y-124643250D01*
X204393800Y-123444000D01*
X204647800Y-123444000D01*
X204647800Y-124643250D01*
X204806550Y-124802000D01*
X205370800Y-124805072D01*
X205495282Y-124792812D01*
X205614980Y-124756502D01*
X205725294Y-124697537D01*
X205821985Y-124618185D01*
X205901337Y-124521494D01*
X205960302Y-124411180D01*
X205996612Y-124291482D01*
X206008872Y-124167000D01*
X206005800Y-123602750D01*
X205847050Y-123444000D01*
X204647800Y-123444000D01*
X204393800Y-123444000D01*
X203194550Y-123444000D01*
X203035800Y-123602750D01*
X203032728Y-124167000D01*
X198176307Y-124167000D01*
X198257475Y-124085832D01*
X198419990Y-123842611D01*
X198531932Y-123572358D01*
X198589000Y-123285460D01*
X198589000Y-122992940D01*
X198531932Y-122706042D01*
X198432918Y-122467000D01*
X203032728Y-122467000D01*
X203035800Y-123031250D01*
X203194550Y-123190000D01*
X204393800Y-123190000D01*
X204393800Y-121990750D01*
X204647800Y-121990750D01*
X204647800Y-123190000D01*
X205847050Y-123190000D01*
X206005800Y-123031250D01*
X206008872Y-122467000D01*
X205996612Y-122342518D01*
X205960302Y-122222820D01*
X205901337Y-122112506D01*
X205821985Y-122015815D01*
X205725294Y-121936463D01*
X205614980Y-121877498D01*
X205495282Y-121841188D01*
X205370800Y-121828928D01*
X204806550Y-121832000D01*
X204647800Y-121990750D01*
X204393800Y-121990750D01*
X204235050Y-121832000D01*
X203670800Y-121828928D01*
X203546318Y-121841188D01*
X203426620Y-121877498D01*
X203316306Y-121936463D01*
X203219615Y-122015815D01*
X203140263Y-122112506D01*
X203081298Y-122222820D01*
X203044988Y-122342518D01*
X203032728Y-122467000D01*
X198432918Y-122467000D01*
X198419990Y-122435789D01*
X198257475Y-122192568D01*
X198050632Y-121985725D01*
X197876240Y-121869200D01*
X198050632Y-121752675D01*
X198257475Y-121545832D01*
X198419990Y-121302611D01*
X198531932Y-121032358D01*
X198589000Y-120745460D01*
X198589000Y-120452940D01*
X198531932Y-120166042D01*
X198419990Y-119895789D01*
X198257475Y-119652568D01*
X198050632Y-119445725D01*
X197876240Y-119329200D01*
X198050632Y-119212675D01*
X198257475Y-119005832D01*
X198419990Y-118762611D01*
X198531932Y-118492358D01*
X198589000Y-118205460D01*
X198589000Y-117912940D01*
X198531932Y-117626042D01*
X198419990Y-117355789D01*
X198257475Y-117112568D01*
X198050632Y-116905725D01*
X197876240Y-116789200D01*
X198050632Y-116672675D01*
X198257475Y-116465832D01*
X198419990Y-116222611D01*
X198531932Y-115952358D01*
X198589000Y-115665460D01*
X198589000Y-115372940D01*
X198531932Y-115086042D01*
X198419990Y-114815789D01*
X198257475Y-114572568D01*
X198050632Y-114365725D01*
X197876240Y-114249200D01*
X198050632Y-114132675D01*
X198257475Y-113925832D01*
X198419990Y-113682611D01*
X198531932Y-113412358D01*
X198589000Y-113125460D01*
X198589000Y-112832940D01*
X198531932Y-112546042D01*
X198419990Y-112275789D01*
X198257475Y-112032568D01*
X198050632Y-111825725D01*
X197876240Y-111709200D01*
X198050632Y-111592675D01*
X198257475Y-111385832D01*
X198419990Y-111142611D01*
X198531932Y-110872358D01*
X198589000Y-110585460D01*
X198589000Y-110292940D01*
X198531932Y-110006042D01*
X198419990Y-109735789D01*
X198257475Y-109492568D01*
X198050632Y-109285725D01*
X197876240Y-109169200D01*
X198050632Y-109052675D01*
X198257475Y-108845832D01*
X198419990Y-108602611D01*
X198531932Y-108332358D01*
X198589000Y-108045460D01*
X198589000Y-107752940D01*
X198531932Y-107466042D01*
X198419990Y-107195789D01*
X198257475Y-106952568D01*
X198050632Y-106745725D01*
X197876240Y-106629200D01*
X198050632Y-106512675D01*
X198257475Y-106305832D01*
X198419990Y-106062611D01*
X198531932Y-105792358D01*
X198589000Y-105505460D01*
X198589000Y-105212940D01*
X198531932Y-104926042D01*
X198419990Y-104655789D01*
X198257475Y-104412568D01*
X198050632Y-104205725D01*
X197876240Y-104089200D01*
X198050632Y-103972675D01*
X198257475Y-103765832D01*
X198419990Y-103522611D01*
X198531932Y-103252358D01*
X198589000Y-102965460D01*
X198589000Y-102672940D01*
X198531932Y-102386042D01*
X198419990Y-102115789D01*
X198321508Y-101968400D01*
X199272728Y-101968400D01*
X199272728Y-103568400D01*
X199284988Y-103692882D01*
X199321298Y-103812580D01*
X199380263Y-103922894D01*
X199459615Y-104019585D01*
X199556306Y-104098937D01*
X199666620Y-104157902D01*
X199786318Y-104194212D01*
X199910800Y-104206472D01*
X201510800Y-104206472D01*
X201635282Y-104194212D01*
X201754980Y-104157902D01*
X201865294Y-104098937D01*
X201961985Y-104019585D01*
X202041337Y-103922894D01*
X202100302Y-103812580D01*
X202115917Y-103761102D01*
X202397703Y-103761102D01*
X202469286Y-104005071D01*
X202724796Y-104125971D01*
X202998984Y-104194700D01*
X203281312Y-104208617D01*
X203560930Y-104167187D01*
X203827092Y-104072003D01*
X203952314Y-104005071D01*
X204023897Y-103761102D01*
X203210800Y-102948005D01*
X202397703Y-103761102D01*
X202115917Y-103761102D01*
X202136612Y-103692882D01*
X202148872Y-103568400D01*
X202148872Y-103561185D01*
X202218098Y-103581497D01*
X203031195Y-102768400D01*
X203390405Y-102768400D01*
X204203502Y-103581497D01*
X204447471Y-103509914D01*
X204568371Y-103254404D01*
X204637100Y-102980216D01*
X204651017Y-102697888D01*
X204609587Y-102418270D01*
X204514403Y-102152108D01*
X204447471Y-102026886D01*
X204203502Y-101955303D01*
X203390405Y-102768400D01*
X203031195Y-102768400D01*
X202218098Y-101955303D01*
X202148872Y-101975615D01*
X202148872Y-101968400D01*
X202136612Y-101843918D01*
X202115918Y-101775698D01*
X202397703Y-101775698D01*
X203210800Y-102588795D01*
X204023897Y-101775698D01*
X203952314Y-101531729D01*
X203696804Y-101410829D01*
X203422616Y-101342100D01*
X203140288Y-101328183D01*
X202860670Y-101369613D01*
X202594508Y-101464797D01*
X202469286Y-101531729D01*
X202397703Y-101775698D01*
X202115918Y-101775698D01*
X202100302Y-101724220D01*
X202041337Y-101613906D01*
X201961985Y-101517215D01*
X201865294Y-101437863D01*
X201754980Y-101378898D01*
X201635282Y-101342588D01*
X201510800Y-101330328D01*
X199910800Y-101330328D01*
X199786318Y-101342588D01*
X199666620Y-101378898D01*
X199556306Y-101437863D01*
X199459615Y-101517215D01*
X199380263Y-101613906D01*
X199321298Y-101724220D01*
X199284988Y-101843918D01*
X199272728Y-101968400D01*
X198321508Y-101968400D01*
X198257475Y-101872568D01*
X198050632Y-101665725D01*
X197876240Y-101549200D01*
X198050632Y-101432675D01*
X198257475Y-101225832D01*
X198419990Y-100982611D01*
X198531932Y-100712358D01*
X198589000Y-100425460D01*
X198589000Y-100132940D01*
X198531932Y-99846042D01*
X198419990Y-99575789D01*
X198257475Y-99332568D01*
X198125620Y-99200713D01*
X198198180Y-99178702D01*
X198308494Y-99119737D01*
X198405185Y-99040385D01*
X198484537Y-98943694D01*
X198543502Y-98833380D01*
X198579812Y-98713682D01*
X198592072Y-98589200D01*
X198592072Y-96889200D01*
X198579812Y-96764718D01*
X198543502Y-96645020D01*
X198484537Y-96534706D01*
X198405185Y-96438015D01*
X198308494Y-96358663D01*
X198198180Y-96299698D01*
X198078482Y-96263388D01*
X197954000Y-96251128D01*
X196254000Y-96251128D01*
X196129518Y-96263388D01*
X196009820Y-96299698D01*
X195899506Y-96358663D01*
X195802815Y-96438015D01*
X195723463Y-96534706D01*
X195664498Y-96645020D01*
X195628188Y-96764718D01*
X195615928Y-96889200D01*
X195615928Y-98589200D01*
X195628188Y-98713682D01*
X195664498Y-98833380D01*
X195723463Y-98943694D01*
X195802815Y-99040385D01*
X195899506Y-99119737D01*
X196009820Y-99178702D01*
X196082380Y-99200713D01*
X195950525Y-99332568D01*
X195788010Y-99575789D01*
X195676068Y-99846042D01*
X195619000Y-100132940D01*
X195619000Y-100425460D01*
X195676068Y-100712358D01*
X195788010Y-100982611D01*
X195950525Y-101225832D01*
X196157368Y-101432675D01*
X196331760Y-101549200D01*
X196157368Y-101665725D01*
X195950525Y-101872568D01*
X195788010Y-102115789D01*
X195676068Y-102386042D01*
X195656678Y-102483523D01*
X195447000Y-102273845D01*
X195447000Y-88740521D01*
X198525000Y-88740521D01*
X198525000Y-89161079D01*
X198607047Y-89573556D01*
X198767988Y-89962102D01*
X199001637Y-90311783D01*
X199299017Y-90609163D01*
X199648698Y-90842812D01*
X200037244Y-91003753D01*
X200449721Y-91085800D01*
X200870279Y-91085800D01*
X201282756Y-91003753D01*
X201671302Y-90842812D01*
X202020983Y-90609163D01*
X202179346Y-90450800D01*
X203601928Y-90450800D01*
X203614188Y-90575282D01*
X203650498Y-90694980D01*
X203709463Y-90805294D01*
X203788815Y-90901985D01*
X203885506Y-90981337D01*
X203995820Y-91040302D01*
X204115518Y-91076612D01*
X204240000Y-91088872D01*
X205454250Y-91085800D01*
X205613000Y-90927050D01*
X205613000Y-89077800D01*
X205867000Y-89077800D01*
X205867000Y-90927050D01*
X206025750Y-91085800D01*
X207240000Y-91088872D01*
X207364482Y-91076612D01*
X207484180Y-91040302D01*
X207594494Y-90981337D01*
X207691185Y-90901985D01*
X207770537Y-90805294D01*
X207829502Y-90694980D01*
X207865812Y-90575282D01*
X207878072Y-90450800D01*
X207875000Y-89236550D01*
X207716250Y-89077800D01*
X205867000Y-89077800D01*
X205613000Y-89077800D01*
X203763750Y-89077800D01*
X203605000Y-89236550D01*
X203601928Y-90450800D01*
X202179346Y-90450800D01*
X202318363Y-90311783D01*
X202552012Y-89962102D01*
X202712953Y-89573556D01*
X202795000Y-89161079D01*
X202795000Y-88740521D01*
X202712953Y-88328044D01*
X202552012Y-87939498D01*
X202318363Y-87589817D01*
X202179346Y-87450800D01*
X203601928Y-87450800D01*
X203605000Y-88665050D01*
X203763750Y-88823800D01*
X205613000Y-88823800D01*
X205613000Y-86974550D01*
X205867000Y-86974550D01*
X205867000Y-88823800D01*
X207716250Y-88823800D01*
X207875000Y-88665050D01*
X207878072Y-87450800D01*
X207865812Y-87326318D01*
X207829502Y-87206620D01*
X207770537Y-87096306D01*
X207691185Y-86999615D01*
X207594494Y-86920263D01*
X207484180Y-86861298D01*
X207364482Y-86824988D01*
X207240000Y-86812728D01*
X206025750Y-86815800D01*
X205867000Y-86974550D01*
X205613000Y-86974550D01*
X205454250Y-86815800D01*
X204240000Y-86812728D01*
X204115518Y-86824988D01*
X203995820Y-86861298D01*
X203885506Y-86920263D01*
X203788815Y-86999615D01*
X203709463Y-87096306D01*
X203650498Y-87206620D01*
X203614188Y-87326318D01*
X203601928Y-87450800D01*
X202179346Y-87450800D01*
X202020983Y-87292437D01*
X201671302Y-87058788D01*
X201282756Y-86897847D01*
X200870279Y-86815800D01*
X200449721Y-86815800D01*
X200037244Y-86897847D01*
X199648698Y-87058788D01*
X199299017Y-87292437D01*
X199001637Y-87589817D01*
X198767988Y-87939498D01*
X198607047Y-88328044D01*
X198525000Y-88740521D01*
X195447000Y-88740521D01*
X195447000Y-84325134D01*
X209063348Y-83447708D01*
X207523377Y-135730985D01*
G04 #@! TD*
M02*
